#N canvas 392 30 1434 972 12;
#X floatatom 1022 303 15 0 0 0 - - - 0;
#X floatatom 884 302 15 0 0 0 - - - 0;
#X text 1077 273 start sample;
#X text 937 274 end sample;
#X obj 1096 886 *~;
#X obj 1175 763 vline~;
#X floatatom 1264 761 15 0 0 0 - - - 0;
#X floatatom 1295 711 15 0 0 0 - - - 0;
#X obj 1253 691 line;
#X text 1094 671 read from sample \$1 to sample \$2 in \$3 msec;
#X obj 1378 52 bng 25 250 50 0 empty empty Play 17 7 0 10 #fcfcfc #000000
#000000;
#X obj 1272 51 bng 25 250 50 0 empty empty Play_Reverse 17 7 0 10 #fcfcfc
#000000 #000000;
#X obj 884 271 * 44100;
#X obj 1022 272 * 44100;
#X obj 975 594 pack \$1 \$2 \$3 \$4;
#X msg 1175 614 \$2 \, \$3 \$4;
#X msg 1253 654 \$2 \, \$3 \$4 1;
#X msg 975 614 \$3 \, \$2 \$4;
#X obj 1272 18 inlet;
#X obj 1378 17 inlet;
#X obj 1095 928 outlet~;
#X obj 875 19 inlet;
#X obj 1041 156 * 1000;
#X floatatom 1041 179 15 0 0 0 - - - 0;
#X msg 999 159 0;
#X floatatom 1178 235 5 0 0 0 - - - 0;
#X obj 1178 278 *;
#X floatatom 1178 303 15 0 0 0 - - - 0;
#X text 995 183 reset;
#X text 1206 280 play in time msec;
#X obj 977 19 inlet;
#X obj 1041 19 inlet;
#X obj 1178 20 inlet;
#X floatatom 884 239 5 0 0 0 - - - 0;
#X floatatom 1022 238 5 0 0 0 - - - 0;
#X floatatom 1041 129 5 0 0 0 - - - 0;
#X obj 1159 198 bng 15 250 50 0 empty empty empty 17 7 0 10 #fcfcfc
#000000 #000000;
#X floatatom 1026 370 13 0 0 0 - - - 0;
#X text 1086 346 end2;
#X floatatom 868 371 21 0 0 0 - - - 0;
#X text 918 346 delay time;
#X msg 1118 345 0;
#X floatatom 17 652 13 0 0 0 - - - 0;
#X floatatom 431 639 13 0 0 0 - - - 0;
#X text 18 576 tail ramp start;
#X text 428 582 tail ramp end2;
#X obj 1175 594 pack \$1 \$2 \$3 \$4 \$5 \$6 \$7 \$8;
#X floatatom 133 807 15 0 0 0 - - - 0;
#X floatatom 182 759 15 0 0 0 - - - 0;
#X obj 89 739 line;
#X msg 89 716 \$2 \, \$6 \$5 1;
#X obj 300 776 line;
#X floatatom 300 801 11 0 0 0 - - - 0;
#X obj 332 615 delay;
#X msg 332 589 \$5;
#X obj 300 731 pack \$1 \$2;
#X obj 1026 345 - 17640;
#X obj 868 346 - 400;
#X msg 300 754 \$1 \, \$2 405 0.1;
#X floatatom 865 840 15 0 0 0 - - - 0;
#X floatatom 865 709 15 0 0 0 - - - 0;
#X obj 865 673 line;
#X msg 865 638 \$3 \, \$2 \$4 0.1;
#X floatatom 134 129 5 0 0 0 - - - 0;
#X obj 134 153 select 0 1 2 3 4 5 6 7, f 101;
#X obj 222 131 hradio 15 1 0 8 empty empty empty 0 -8 0 10 #fcfcfc
#000000 #000000 0;
#X obj 134 12 inlet;
#X msg 134 228 set Env_q;
#X msg 222 229 set Env_a;
#X msg 310 229 set Env_w;
#X msg 486 229 set Env_e;
#X msg 574 230 set Env_d;
#X msg 662 230 set Env_r;
#X msg 750 230 set Env_f;
#X msg 398 229 set Env_s;
#X obj 865 755 tabread Env_q;
#X obj 1253 733 tabread Env_q;
#X obj 17 627 tabread Env_q;
#X obj 431 614 tabread Env_q;
#X obj 133 781 tabread Env_q;
#X obj 1087 764 vline~;
#X msg 510 755 set Track_q;
#X msg 512 794 set Track_a;
#X msg 598 755 set Track_w;
#X msg 599 794 set Track_s;
#X msg 684 755 set Track_e;
#X msg 685 794 set Track_d;
#X msg 770 755 set Track_r;
#X msg 771 794 set Track_f;
#X obj 1100 814 tabread~ Track_q;
#X obj 1216 814 tabread~ Track_q;
#X connect 0 0 14 1;
#X connect 0 0 46 1;
#X connect 0 0 77 0;
#X connect 1 0 14 2;
#X connect 1 0 46 2;
#X connect 1 0 56 0;
#X connect 4 0 20 0;
#X connect 5 0 90 0;
#X connect 8 0 7 0;
#X connect 8 0 76 0;
#X connect 10 0 46 0;
#X connect 11 0 14 0;
#X connect 12 0 1 0;
#X connect 13 0 0 0;
#X connect 14 0 17 0;
#X connect 14 0 16 0;
#X connect 14 0 62 0;
#X connect 15 0 5 0;
#X connect 16 0 8 0;
#X connect 17 0 80 0;
#X connect 18 0 11 0;
#X connect 19 0 10 0;
#X connect 21 0 34 0;
#X connect 22 0 23 0;
#X connect 23 0 26 1;
#X connect 23 0 36 0;
#X connect 24 0 23 0;
#X connect 25 0 26 0;
#X connect 26 0 27 0;
#X connect 27 0 14 3;
#X connect 27 0 46 3;
#X connect 27 0 57 0;
#X connect 30 0 33 0;
#X connect 31 0 35 0;
#X connect 32 0 25 0;
#X connect 33 0 12 0;
#X connect 34 0 13 0;
#X connect 35 0 22 0;
#X connect 36 0 25 0;
#X connect 37 0 46 5;
#X connect 37 0 78 0;
#X connect 39 0 46 4;
#X connect 41 0 37 0;
#X connect 42 0 55 1;
#X connect 43 0 55 0;
#X connect 46 0 15 0;
#X connect 46 0 16 0;
#X connect 46 0 50 0;
#X connect 46 0 54 0;
#X connect 47 0 4 1;
#X connect 49 0 48 0;
#X connect 49 0 79 0;
#X connect 50 0 49 0;
#X connect 51 0 52 0;
#X connect 52 0 4 1;
#X connect 53 0 42 0;
#X connect 53 0 43 0;
#X connect 54 0 53 0;
#X connect 55 0 58 0;
#X connect 56 0 37 0;
#X connect 57 0 39 0;
#X connect 58 0 51 0;
#X connect 59 0 4 1;
#X connect 61 0 60 0;
#X connect 61 0 75 0;
#X connect 62 0 61 0;
#X connect 63 0 64 0;
#X connect 64 0 67 0;
#X connect 64 0 81 0;
#X connect 64 1 68 0;
#X connect 64 1 82 0;
#X connect 64 2 69 0;
#X connect 64 2 83 0;
#X connect 64 3 74 0;
#X connect 64 3 84 0;
#X connect 64 4 70 0;
#X connect 64 4 85 0;
#X connect 64 5 71 0;
#X connect 64 5 86 0;
#X connect 64 6 72 0;
#X connect 64 6 87 0;
#X connect 64 7 73 0;
#X connect 64 7 88 0;
#X connect 65 0 64 0;
#X connect 66 0 63 0;
#X connect 67 0 75 0;
#X connect 67 0 77 0;
#X connect 67 0 78 0;
#X connect 67 0 79 0;
#X connect 68 0 75 0;
#X connect 68 0 77 0;
#X connect 68 0 78 0;
#X connect 68 0 79 0;
#X connect 69 0 75 0;
#X connect 69 0 77 0;
#X connect 69 0 78 0;
#X connect 69 0 79 0;
#X connect 70 0 75 0;
#X connect 70 0 77 0;
#X connect 70 0 78 0;
#X connect 70 0 79 0;
#X connect 71 0 75 0;
#X connect 71 0 77 0;
#X connect 71 0 78 0;
#X connect 71 0 79 0;
#X connect 72 0 75 0;
#X connect 72 0 77 0;
#X connect 72 0 78 0;
#X connect 72 0 79 0;
#X connect 73 0 75 0;
#X connect 73 0 77 0;
#X connect 73 0 78 0;
#X connect 73 0 79 0;
#X connect 74 0 75 0;
#X connect 74 0 77 0;
#X connect 74 0 78 0;
#X connect 74 0 79 0;
#X connect 75 0 59 0;
#X connect 76 0 6 0;
#X connect 77 0 42 0;
#X connect 78 0 43 0;
#X connect 79 0 47 0;
#X connect 80 0 89 0;
#X connect 81 0 89 0;
#X connect 81 0 90 0;
#X connect 82 0 89 0;
#X connect 82 0 90 0;
#X connect 83 0 89 0;
#X connect 83 0 90 0;
#X connect 84 0 89 0;
#X connect 84 0 90 0;
#X connect 85 0 89 0;
#X connect 85 0 90 0;
#X connect 86 0 89 0;
#X connect 86 0 90 0;
#X connect 87 0 89 0;
#X connect 87 0 90 0;
#X connect 88 0 89 0;
#X connect 88 0 90 0;
#X connect 89 0 4 0;
#X connect 90 0 4 0;
