#N canvas 168 244 873 556 12;
#X floatatom 41 60 10 0 0 0 - - - 0;
#X obj 41 84 t f f;
#X obj 95 114 +;
#X obj 152 69 r grain_dur;
#X floatatom 152 94 5 0 0 0 - - - 0;
#X msg 41 198 \$1 \, \$2 \$3;
#X floatatom 267 97 5 0 0 0 - - - 0;
#X obj 267 121 select 0 1 2 3 4 5 6 7, f 66;
#X obj 360 96 hradio 15 1 0 8 empty empty empty 0 -8 0 10 #fcfcfc #000000
#000000 0;
#X obj 41 173 pack f f f;
#X obj 41 223 line~;
#X obj 152 129 * 44.1;
#X obj 42 436 outlet~;
#X obj 163 391 tabread~ Env_q;
#X obj 42 411 *~;
#X msg 267 296 set Env_q;
#X msg 339 296 set Env_a;
#X msg 411 296 set Env_w;
#X msg 484 296 set Env_s;
#X msg 556 296 set Env_e;
#X msg 628 296 set Env_d;
#X msg 701 296 set Env_r;
#X msg 773 296 set Env_f;
#X obj 41 9 inlet;
#X obj 267 7 inlet;
#X msg 267 155 set Track_q;
#X msg 324 174 set Track_a;
#X msg 381 155 set Track_w;
#X msg 439 176 set Track_s;
#X msg 496 155 set Track_e;
#X msg 555 175 set Track_d;
#X msg 611 155 set Track_r;
#X msg 668 174 set Track_f;
#X obj 41 360 tabread4~ Track_q;
#X connect 0 0 1 0;
#X connect 1 0 9 0;
#X connect 1 1 2 0;
#X connect 2 0 9 1;
#X connect 3 0 4 0;
#X connect 4 0 9 2;
#X connect 4 0 11 0;
#X connect 5 0 10 0;
#X connect 6 0 7 0;
#X connect 7 0 25 0;
#X connect 7 0 15 0;
#X connect 7 1 26 0;
#X connect 7 1 16 0;
#X connect 7 2 27 0;
#X connect 7 2 17 0;
#X connect 7 3 28 0;
#X connect 7 3 18 0;
#X connect 7 4 29 0;
#X connect 7 4 19 0;
#X connect 7 5 30 0;
#X connect 7 5 20 0;
#X connect 7 6 31 0;
#X connect 7 6 21 0;
#X connect 7 7 32 0;
#X connect 7 7 22 0;
#X connect 8 0 7 0;
#X connect 9 0 5 0;
#X connect 10 0 13 0;
#X connect 10 0 33 0;
#X connect 11 0 2 1;
#X connect 13 0 14 1;
#X connect 14 0 12 0;
#X connect 15 0 13 0;
#X connect 16 0 13 0;
#X connect 17 0 13 0;
#X connect 18 0 13 0;
#X connect 19 0 13 0;
#X connect 20 0 13 0;
#X connect 21 0 13 0;
#X connect 22 0 13 0;
#X connect 23 0 0 0;
#X connect 24 0 6 0;
#X connect 25 0 33 0;
#X connect 26 0 33 0;
#X connect 27 0 33 0;
#X connect 28 0 33 0;
#X connect 29 0 33 0;
#X connect 30 0 33 0;
#X connect 31 0 33 0;
#X connect 32 0 33 0;
#X connect 33 0 14 0;
