#N canvas 670 590 524 300 12;
#X obj 14 88 t b b;
#X msg 64 137 stop;
#X msg 14 137 start;
#X obj 14 64 metro 51;
#X obj 14 113 delay 50;
#X obj 14 224 tabwrite~ grain;
#X msg 285 184 set grain;
#X msg 381 184 set live_delay;
#X obj 14 20 inlet;
#X obj 285 17 inlet;
#X obj 165 96 inlet~;
#X obj 285 42 select 1 2, f 28;
#X connect 0 0 4 0;
#X connect 0 1 2 0;
#X connect 1 0 5 0;
#X connect 2 0 5 0;
#X connect 3 0 0 0;
#X connect 4 0 1 0;
#X connect 6 0 5 0;
#X connect 7 0 5 0;
#X connect 8 0 3 0;
#X connect 9 0 11 0;
#X connect 10 0 5 0;
#X connect 11 0 6 0;
#X connect 11 1 7 0;
