#N canvas 413 54 995 963 12;
#X text 23 19 RECORDING SECTION;
#X obj 102 74 adc~;
#X obj 103 133 *~;
#X floatatom 207 70 5 0 3 0 - - - 0;
#X obj 48 225 env~;
#X obj 48 250 - 90;
#X obj 50 50 vu 15 120 empty empty -1 -8 0 10 #404040 #000000 1 0;
#X floatatom 539 49 5 0 0 0 - - - 0;
#X obj 267 122 select 0 1 2 3 4 5 6 7, f 66;
#X obj 207 8 inlet;
#X msg 146 212 0;
#X obj 518 107 hradio 15 1 0 8 empty empty empty 0 -8 0 10 #fcfcfc
#000000 #000000 0;
#X obj 539 7 inlet;
#X obj 102 905 tabwrite~ Track_q;
#X msg 267 156 set Track_q;
#X msg 324 176 set Track_a;
#X msg 381 156 set Track_w;
#X msg 439 176 set Track_s;
#X msg 496 156 set Track_e;
#X msg 553 176 set Track_d;
#X msg 611 156 set Track_r;
#X msg 668 176 set Track_f;
#X obj 211 287 bng 15 250 50 0 empty empty empty 17 7 0 10 #fcfcfc
#000000 #000000;
#X obj 325 800 bng 25 250 50 0 empty empty Rec -1 -10 0 15 #fcfcfc
#000000 #000000;
#X obj 325 830 t b b;
#X msg 374 885 stop;
#X msg 325 885 start;
#X obj 325 855 delay 5000;
#X floatatom 632 293 12 0 0 0 - - - 0;
#X obj 632 229 bng 15 250 50 0 empty empty empty 17 7 0 10 #fcfcfc
#000000 #000000;
#X obj 632 244 array size Track_q;
#X obj 632 269 / 44.1;
#X floatatom 770 294 12 0 0 0 - - - 0;
#X obj 769 227 bng 15 250 50 0 empty empty empty 17 7 0 10 #fcfcfc
#000000 #000000;
#X obj 769 267 / 44.1;
#X obj 769 242 array size Track_a;
#X floatatom 634 473 12 0 0 0 - - - 0;
#X obj 634 409 bng 15 250 50 0 empty empty empty 17 7 0 10 #fcfcfc
#000000 #000000;
#X obj 634 449 / 44.1;
#X obj 634 424 array size Track_w;
#X floatatom 772 472 12 0 0 0 - - - 0;
#X obj 772 408 bng 15 250 50 0 empty empty empty 17 7 0 10 #fcfcfc
#000000 #000000;
#X obj 772 448 / 44.1;
#X obj 772 423 array size Track_s;
#X floatatom 631 660 12 0 0 0 - - - 0;
#X obj 631 596 bng 15 250 50 0 empty empty empty 17 7 0 10 #fcfcfc
#000000 #000000;
#X obj 631 636 / 44.1;
#X obj 631 611 array size Track_e;
#X floatatom 774 660 12 0 0 0 - - - 0;
#X obj 774 596 bng 15 250 50 0 empty empty empty 17 7 0 10 #fcfcfc
#000000 #000000;
#X obj 774 636 / 44.1;
#X obj 774 611 array size Track_d;
#X floatatom 627 850 12 0 0 0 - - - 0;
#X obj 627 786 bng 15 250 50 0 empty empty empty 17 7 0 10 #fcfcfc
#000000 #000000;
#X obj 627 826 / 44.1;
#X obj 627 801 array size Track_r;
#X floatatom 772 850 12 0 0 0 - - - 0;
#X obj 772 786 bng 15 250 50 0 empty empty empty 17 7 0 10 #fcfcfc
#000000 #000000;
#X obj 772 826 / 44.1;
#X obj 772 801 array size Track_f;
#X obj 641 333 delay 5000;
#X msg 641 358 send q_ready;
#X obj 641 383 int 1;
#X obj 802 327 delay 5000;
#X obj 802 377 int 1;
#X msg 802 352 send a_ready;
#X obj 636 508 delay 5000;
#X obj 636 558 int 1;
#X obj 805 507 delay 5000;
#X obj 805 557 int 1;
#X msg 805 532 send s_ready;
#X obj 649 694 delay 5000;
#X obj 649 744 int 1;
#X msg 648 718 send e_ready;
#X obj 824 691 delay 5000;
#X obj 824 741 int 1;
#X msg 824 716 send d_ready;
#X obj 678 882 delay 5000;
#X obj 678 932 int 1;
#X msg 678 907 send r_ready;
#X obj 838 883 delay 5000;
#X obj 838 933 int 1;
#X msg 838 908 send f_ready;
#X obj 643 314 bng 15 250 50 0 empty empty empty 17 7 0 10 #fcfcfc
#000000 #000000;
#X obj 781 323 bng 15 250 50 0 empty empty empty 17 7 0 10 #fcfcfc
#000000 #000000;
#X obj 645 493 bng 15 250 50 0 empty empty empty 17 7 0 10 #fcfcfc
#000000 #000000;
#X obj 787 504 bng 15 250 50 0 empty empty empty 17 7 0 10 #fcfcfc
#000000 #000000;
#X obj 631 690 bng 15 250 50 0 empty empty empty 17 7 0 10 #fcfcfc
#000000 #000000;
#X obj 799 686 bng 15 250 50 0 empty empty empty 17 7 0 10 #fcfcfc
#000000 #000000;
#X obj 649 881 bng 15 250 50 0 empty empty empty 17 7 0 10 #fcfcfc
#000000 #000000;
#X obj 813 881 bng 15 250 50 0 empty empty empty 17 7 0 10 #fcfcfc
#000000 #000000;
#X msg 636 533 send w_ready;
#N canvas 622 162 942 799 security_rec_red 0;
#X msg 101 188 -1;
#X msg 264 190 1;
#X msg 204 189 -1;
#X obj 204 159 moses 0.5;
#X msg 369 192 1;
#X msg 309 191 -1;
#X obj 309 161 moses 0.5;
#X msg 477 191 1;
#X msg 417 190 -1;
#X obj 417 160 moses 0.5;
#X msg 587 186 1;
#X msg 527 185 -1;
#X obj 527 155 moses 0.5;
#X msg 690 187 1;
#X msg 630 186 -1;
#X obj 630 156 moses 0.5;
#X msg 795 189 1;
#X msg 735 188 -1;
#X obj 735 158 moses 0.5;
#X msg 903 188 1;
#X msg 843 187 -1;
#X obj 843 157 moses 0.5;
#X obj 101 158 moses 0.5;
#X obj 101 131 tgl 15 0 empty empty empty 17 7 0 10 #fcfcfc #000000
#000000 0 1;
#X obj 405 257 +;
#X obj 204 131 tgl 15 0 empty empty empty 17 7 0 10 #fcfcfc #000000
#000000 0 1;
#X obj 309 132 tgl 15 0 empty empty empty 17 7 0 10 #fcfcfc #000000
#000000 0 1;
#X obj 417 131 tgl 15 0 empty empty empty 17 7 0 10 #fcfcfc #000000
#000000 0 1;
#X obj 527 128 tgl 15 0 empty empty empty 17 7 0 10 #fcfcfc #000000
#000000 0 1;
#X obj 630 129 tgl 15 0 empty empty empty 17 7 0 10 #fcfcfc #000000
#000000 0 1;
#X obj 735 129 tgl 15 0 empty empty empty 17 7 0 10 #fcfcfc #000000
#000000 0 1;
#X obj 843 128 tgl 15 0 empty empty empty 17 7 0 10 #fcfcfc #000000
#000000 0 1;
#X obj 405 347 expr 1 / $f1;
#X obj 509 543 bng 15 250 50 0 empty empty empty 17 7 0 10 #fcfcfc
#000000 #000000;
#X obj 528 543 bng 15 250 50 0 empty empty empty 17 7 0 10 #fcfcfc
#000000 #000000;
#X obj 549 543 bng 15 250 50 0 empty empty empty 17 7 0 10 #fcfcfc
#000000 #000000;
#X obj 568 543 bng 15 250 50 0 empty empty empty 17 7 0 10 #fcfcfc
#000000 #000000;
#X obj 587 543 bng 15 250 50 0 empty empty empty 17 7 0 10 #fcfcfc
#000000 #000000;
#X obj 606 543 bng 15 250 50 0 empty empty empty 17 7 0 10 #fcfcfc
#000000 #000000;
#X obj 627 543 bng 15 250 50 0 empty empty empty 17 7 0 10 #fcfcfc
#000000 #000000;
#X obj 485 511 sel 1 2 3 4 5 6 7 8, f 21;
#X obj 405 307 nbx 5 14 0 9 0 0 ch empty empty 0 -8 0 10 #fcfcfc #000000
#000000 0 256;
#X obj 485 542 bng 15 250 50 0 empty empty empty 17 7 0 10 #fcfcfc
#000000 #000000;
#X obj 359 661 float 1;
#X floatatom 405 371 5 0 0 0 - - - 0;
#X msg 142 593 send sec_v_q;
#X msg 238 594 send sec_v_a;
#X msg 333 596 send sec_v_w;
#X msg 426 597 send sec_v_s;
#X msg 520 597 send sec_v_e;
#X msg 612 598 send sec_v_d;
#X msg 708 598 send sec_v_r;
#X msg 803 598 send sec_v_f;
#X obj 485 420 bng 15 250 50 0 empty empty empty 17 7 0 10 #fcfcfc
#000000 #000000;
#X msg 423 277 send ch;
#X obj 485 440 value ch;
#X floatatom 485 487 5 0 0 0 - - - 0;
#X msg 161 189 1;
#X obj 485 465 + 1;
#X obj 97 96 r q_ready;
#X obj 849 77 r f_ready;
#X obj 742 83 r r_ready;
#X obj 637 83 r d_ready;
#X obj 530 89 r e_ready;
#X obj 415 86 r s_ready;
#X obj 308 92 r w_ready;
#X obj 204 90 r a_ready;
#X obj 92 319 r sl_on_off;
#X floatatom 92 344 5 0 0 0 - - - 0;
#X obj 92 379 sel 0 1;
#X msg 336 439 7;
#X msg 92 413 1;
#X connect 0 0 24 0;
#X connect 1 0 24 0;
#X connect 2 0 24 0;
#X connect 3 0 2 0;
#X connect 3 1 1 0;
#X connect 4 0 24 0;
#X connect 5 0 24 0;
#X connect 6 0 5 0;
#X connect 6 1 4 0;
#X connect 7 0 24 0;
#X connect 8 0 24 0;
#X connect 9 0 8 0;
#X connect 9 1 7 0;
#X connect 10 0 24 0;
#X connect 11 0 24 0;
#X connect 12 0 11 0;
#X connect 12 1 10 0;
#X connect 13 0 24 0;
#X connect 14 0 24 0;
#X connect 15 0 14 0;
#X connect 15 1 13 0;
#X connect 16 0 24 0;
#X connect 17 0 24 0;
#X connect 18 0 17 0;
#X connect 18 1 16 0;
#X connect 19 0 24 0;
#X connect 20 0 24 0;
#X connect 21 0 20 0;
#X connect 21 1 19 0;
#X connect 22 0 0 0;
#X connect 22 1 57 0;
#X connect 23 0 22 0;
#X connect 24 0 41 0;
#X connect 24 0 54 0;
#X connect 25 0 3 0;
#X connect 26 0 6 0;
#X connect 27 0 9 0;
#X connect 28 0 12 0;
#X connect 29 0 15 0;
#X connect 30 0 18 0;
#X connect 31 0 21 0;
#X connect 32 0 44 0;
#X connect 33 0 42 0;
#X connect 33 0 46 0;
#X connect 34 0 33 0;
#X connect 34 0 47 0;
#X connect 35 0 34 0;
#X connect 35 0 48 0;
#X connect 36 0 35 0;
#X connect 36 0 49 0;
#X connect 37 0 36 0;
#X connect 37 0 50 0;
#X connect 38 0 37 0;
#X connect 38 0 51 0;
#X connect 39 0 38 0;
#X connect 39 0 52 0;
#X connect 40 0 42 0;
#X connect 40 1 33 0;
#X connect 40 2 34 0;
#X connect 40 3 35 0;
#X connect 40 4 36 0;
#X connect 40 5 37 0;
#X connect 40 6 38 0;
#X connect 40 7 39 0;
#X connect 41 0 24 1;
#X connect 41 0 32 0;
#X connect 42 0 45 0;
#X connect 44 0 43 1;
#X connect 44 0 53 0;
#X connect 45 0 43 0;
#X connect 46 0 43 0;
#X connect 47 0 43 0;
#X connect 48 0 43 0;
#X connect 49 0 43 0;
#X connect 50 0 43 0;
#X connect 51 0 43 0;
#X connect 52 0 43 0;
#X connect 53 0 55 0;
#X connect 54 0 41 0;
#X connect 55 0 58 0;
#X connect 56 0 40 0;
#X connect 57 0 24 0;
#X connect 58 0 56 0;
#X connect 59 0 23 0;
#X connect 60 0 31 0;
#X connect 61 0 30 0;
#X connect 62 0 29 0;
#X connect 63 0 28 0;
#X connect 64 0 27 0;
#X connect 65 0 26 0;
#X connect 66 0 25 0;
#X connect 67 0 68 0;
#X connect 68 0 69 0;
#X connect 69 0 71 0;
#X connect 69 0 70 0;
#X connect 70 0 58 0;
#X connect 71 0 43 1;
#X restore 834 40 pd security_rec_red;
#N canvas 10 522 730 513 envelope_autoload 0;
#X obj 44 27 inlet;
#X floatatom 44 52 5 0 0 0 - - - 0;
#X obj 44 76 select 0 1 2 3 4 5 6 7, f 87;
#X msg 44 135 set Env_q;
#X msg 119 135 set Env_a;
#X msg 195 135 set Env_w;
#X msg 271 135 set Env_s;
#X msg 347 135 set Env_e;
#X msg 422 135 set Env_d;
#X msg 498 135 set Env_r;
#X msg 574 135 set Env_f;
#X obj 44 472 tabwrite Env_q;
#X obj 516 285 tgl 15 0 empty empty empty 17 7 0 10 #fcfcfc #000000
#000000 0 1;
#X obj 516 403 bng 15 250 50 0 empty empty empty 17 7 0 10 #fcfcfc
#000000 #000000;
#X floatatom 333 433 5 0 0 0 - - - 0;
#X msg 333 400 1;
#X obj 516 452 +;
#X msg 516 423 1;
#X floatatom 516 484 16 0 0 0 - - - 0;
#X obj 426 322 select 0;
#X obj 598 303 expr 1/44.1;
#X floatatom 598 328 11 0 0 0 - - - 0;
#X obj 516 366 metro;
#X obj 598 270 bng 15 250 50 0 empty empty empty 17 7 0 10 #fcfcfc
#000000 #000000;
#X obj 669 26 inlet;
#X msg 426 347 -1;
#X msg 693 269 -1;
#X connect 0 0 1 0;
#X connect 0 0 23 0;
#X connect 0 0 26 0;
#X connect 1 0 2 0;
#X connect 2 0 3 0;
#X connect 2 1 4 0;
#X connect 2 2 5 0;
#X connect 2 3 6 0;
#X connect 2 4 7 0;
#X connect 2 5 8 0;
#X connect 2 6 9 0;
#X connect 2 7 10 0;
#X connect 3 0 11 0;
#X connect 4 0 11 0;
#X connect 5 0 11 0;
#X connect 6 0 11 0;
#X connect 7 0 11 0;
#X connect 8 0 11 0;
#X connect 9 0 11 0;
#X connect 10 0 11 0;
#X connect 12 0 19 0;
#X connect 12 0 22 0;
#X connect 13 0 17 0;
#X connect 14 0 11 0;
#X connect 15 0 14 0;
#X connect 16 0 18 0;
#X connect 16 0 15 0;
#X connect 17 0 16 0;
#X connect 18 0 16 1;
#X connect 18 0 11 1;
#X connect 19 0 25 0;
#X connect 20 0 21 0;
#X connect 21 0 22 1;
#X connect 22 0 13 0;
#X connect 23 0 20 0;
#X connect 23 0 12 0;
#X connect 24 0 12 0;
#X connect 25 0 18 0;
#X connect 26 0 18 0;
#X restore 835 88 pd envelope_autoload;
#X obj 366 9 receive del_t;
#X obj 320 68 int;
#X obj 320 29 delay 0;
#X floatatom 373 29 12 0 0 0 - - - 0;
#X obj 320 49 bng 15 250 50 0 empty empty empty 17 7 0 10 #fcfcfc #000000
#000000;
#X obj 319 12 bng 15 250 50 0 empty empty empty 17 7 0 10 #fcfcfc #000000
#000000;
#X connect 1 0 2 0;
#X connect 2 0 4 0;
#X connect 2 0 13 0;
#X connect 3 0 2 1;
#X connect 4 0 5 0;
#X connect 5 0 6 0;
#X connect 7 0 95 1;
#X connect 7 0 99 0;
#X connect 8 0 14 0;
#X connect 8 1 15 0;
#X connect 8 2 16 0;
#X connect 8 3 17 0;
#X connect 8 4 18 0;
#X connect 8 5 19 0;
#X connect 8 6 20 0;
#X connect 8 7 21 0;
#X connect 9 0 3 0;
#X connect 10 0 3 0;
#X connect 11 0 8 0;
#X connect 12 0 7 0;
#X connect 14 0 13 0;
#X connect 14 0 29 0;
#X connect 15 0 13 0;
#X connect 15 0 33 0;
#X connect 16 0 13 0;
#X connect 16 0 37 0;
#X connect 17 0 13 0;
#X connect 17 0 41 0;
#X connect 18 0 13 0;
#X connect 18 0 45 0;
#X connect 19 0 13 0;
#X connect 19 0 49 0;
#X connect 20 0 13 0;
#X connect 20 0 53 0;
#X connect 21 0 13 0;
#X connect 21 0 57 0;
#X connect 22 0 10 0;
#X connect 22 0 93 1;
#X connect 23 0 24 0;
#X connect 24 0 27 0;
#X connect 24 1 26 0;
#X connect 25 0 13 0;
#X connect 25 0 22 0;
#X connect 26 0 13 0;
#X connect 27 0 25 0;
#X connect 28 0 27 1;
#X connect 28 0 23 0;
#X connect 28 0 60 1;
#X connect 28 0 83 0;
#X connect 29 0 30 0;
#X connect 30 0 31 0;
#X connect 31 0 28 0;
#X connect 32 0 23 0;
#X connect 32 0 27 1;
#X connect 32 0 63 1;
#X connect 32 0 84 0;
#X connect 33 0 35 0;
#X connect 34 0 32 0;
#X connect 35 0 34 0;
#X connect 36 0 23 0;
#X connect 36 0 27 1;
#X connect 36 0 66 1;
#X connect 36 0 85 0;
#X connect 37 0 39 0;
#X connect 38 0 36 0;
#X connect 39 0 38 0;
#X connect 40 0 23 0;
#X connect 40 0 27 1;
#X connect 40 0 68 1;
#X connect 40 0 86 0;
#X connect 41 0 43 0;
#X connect 42 0 40 0;
#X connect 43 0 42 0;
#X connect 44 0 23 0;
#X connect 44 0 27 1;
#X connect 44 0 71 1;
#X connect 44 0 87 0;
#X connect 45 0 47 0;
#X connect 46 0 44 0;
#X connect 47 0 46 0;
#X connect 48 0 23 0;
#X connect 48 0 27 1;
#X connect 48 0 74 1;
#X connect 48 0 88 0;
#X connect 49 0 51 0;
#X connect 50 0 48 0;
#X connect 51 0 50 0;
#X connect 52 0 23 0;
#X connect 52 0 27 1;
#X connect 52 0 77 1;
#X connect 52 0 89 0;
#X connect 53 0 55 0;
#X connect 54 0 52 0;
#X connect 55 0 54 0;
#X connect 56 0 23 0;
#X connect 56 0 27 1;
#X connect 56 0 80 1;
#X connect 56 0 90 0;
#X connect 57 0 59 0;
#X connect 58 0 56 0;
#X connect 59 0 58 0;
#X connect 60 0 61 0;
#X connect 61 0 62 0;
#X connect 63 0 65 0;
#X connect 65 0 64 0;
#X connect 66 0 91 0;
#X connect 68 0 70 0;
#X connect 70 0 69 0;
#X connect 71 0 73 0;
#X connect 73 0 72 0;
#X connect 74 0 76 0;
#X connect 76 0 75 0;
#X connect 77 0 79 0;
#X connect 79 0 78 0;
#X connect 80 0 82 0;
#X connect 82 0 81 0;
#X connect 83 0 60 0;
#X connect 84 0 63 0;
#X connect 85 0 66 0;
#X connect 86 0 68 0;
#X connect 87 0 71 0;
#X connect 88 0 74 0;
#X connect 89 0 77 0;
#X connect 90 0 80 0;
#X connect 91 0 67 0;
#X connect 94 0 97 0;
#X connect 95 0 93 0;
#X connect 95 0 8 0;
#X connect 96 0 98 0;
#X connect 97 0 96 1;
#X connect 98 0 95 0;
#X connect 99 0 96 0;
