#N canvas 909 63 639 927 12;
#X obj 141 28 array size Env_q;
#X floatatom 11 53 12 0 0 0 - - - 0;
#X floatatom 141 53 14 0 0 0 - - - 0;
#X obj 11 13 bng 15 250 50 0 empty empty empty 17 7 0 10 #fcfcfc #000000
#000000;
#X floatatom 12 160 12 0 0 0 - - - 0;
#X floatatom 142 160 14 0 0 0 - - - 0;
#X obj 142 135 array size Env_a;
#X floatatom 13 274 12 0 0 0 - - - 0;
#X floatatom 143 274 14 0 0 0 - - - 0;
#X floatatom 14 384 12 0 0 0 - - - 0;
#X floatatom 144 384 14 0 0 0 - - - 0;
#X obj 143 249 array size Env_w;
#X obj 144 359 array size Env_s;
#X floatatom 15 483 12 0 0 0 - - - 0;
#X floatatom 145 483 14 0 0 0 - - - 0;
#X floatatom 16 589 12 0 0 0 - - - 0;
#X floatatom 146 589 14 0 0 0 - - - 0;
#X floatatom 17 702 12 0 0 0 - - - 0;
#X floatatom 147 702 14 0 0 0 - - - 0;
#X floatatom 18 814 12 0 0 0 - - - 0;
#X floatatom 148 814 14 0 0 0 - - - 0;
#X obj 145 458 array size Env_e;
#X obj 146 564 array size Env_d;
#X obj 147 677 array size Env_r;
#X obj 148 789 array size Env_f;
#X obj 20 849 bng 20 250 50 0 empty empty empty 17 7 0 10 #fcfcfc #000000
#000000;
#X obj 20 874 s show;
#X obj 53 8 r show;
#X obj 12 120 bng 15 250 50 0 empty empty empty 17 7 0 10 #fcfcfc #000000
#000000;
#X obj 54 115 r show;
#X obj 13 234 bng 15 250 50 0 empty empty empty 17 7 0 10 #fcfcfc #000000
#000000;
#X obj 55 229 r show;
#X obj 14 344 bng 15 250 50 0 empty empty empty 17 7 0 10 #fcfcfc #000000
#000000;
#X obj 56 339 r show;
#X obj 15 443 bng 15 250 50 0 empty empty empty 17 7 0 10 #fcfcfc #000000
#000000;
#X obj 57 438 r show;
#X obj 16 549 bng 15 250 50 0 empty empty empty 17 7 0 10 #fcfcfc #000000
#000000;
#X obj 58 544 r show;
#X obj 17 662 bng 15 250 50 0 empty empty empty 17 7 0 10 #fcfcfc #000000
#000000;
#X obj 59 657 r show;
#X obj 18 774 bng 15 250 50 0 empty empty empty 17 7 0 10 #fcfcfc #000000
#000000;
#X obj 60 769 r show;
#X floatatom 420 10 5 0 0 0 - - - 0;
#X floatatom 310 55 8 0 0 0 - - - 0;
#X obj 310 27 abs;
#X msg 501 74 \; Env_q resize \$1;
#X msg 498 833 \; Env_f resize \$1;
#X msg 497 722 \; Env_r resize \$1;
#X msg 498 608 \; Env_d resize \$1;
#X msg 498 504 \; Env_e resize \$1;
#X msg 499 399 \; Env_s resize \$1;
#X msg 500 291 \; Env_w resize \$1;
#X msg 500 180 \; Env_a resize \$1;
#X obj 335 27 * 44100;
#X floatatom 309 161 8 0 0 0 - - - 0;
#X floatatom 309 272 8 0 0 0 - - - 0;
#X floatatom 308 380 8 0 0 0 - - - 0;
#X floatatom 305 485 8 0 0 0 - - - 0;
#X floatatom 304 589 8 0 0 0 - - - 0;
#X floatatom 304 703 8 0 0 0 - - - 0;
#X floatatom 303 814 8 0 0 0 - - - 0;
#X floatatom 105 852 5 0 0 0 - - - 0;
#X obj 105 876 s resize_all;
#X obj 455 36 r resize_all;
#X msg 372 74 \; Track_q resize \$1;
#X msg 370 180 \; Track_a resize \$1;
#X msg 372 291 \; Track_w resize \$1;
#X msg 370 399 \; Track_s resize \$1;
#X msg 370 504 \; Track_e resize \$1;
#X msg 370 608 \; Track_d resize \$1;
#X msg 368 722 \; Track_r resize \$1;
#X msg 369 833 \; Track_f resize \$1;
#X obj 11 28 array size Track_q;
#X obj 12 135 array size Track_a;
#X obj 13 249 array size Track_w;
#X obj 14 359 array size Track_s;
#X obj 15 458 array size Track_e;
#X obj 16 564 array size Track_d;
#X obj 17 677 array size Track_r;
#X obj 18 789 array size Track_f;
#X obj 395 35 int, f 4;
#X obj 395 10 bng 18 250 50 0 empty empty empty 17 7 0 10 #fcfcfc #000000
#000000;
#X floatatom 419 118 5 0 0 0 - - - 0;
#X obj 309 136 abs;
#X obj 334 136 * 44100;
#X obj 455 142 r resize_all;
#X obj 394 141 int, f 4;
#X obj 394 118 bng 18 250 50 0 empty empty empty 17 7 0 10 #fcfcfc
#000000 #000000;
#X floatatom 419 229 5 0 0 0 - - - 0;
#X obj 309 246 abs;
#X obj 334 246 * 44100;
#X obj 455 253 r resize_all;
#X obj 394 252 int, f 4;
#X obj 394 229 bng 18 250 50 0 empty empty empty 17 7 0 10 #fcfcfc
#000000 #000000;
#X floatatom 418 338 5 0 0 0 - - - 0;
#X obj 308 356 abs;
#X obj 333 356 * 44100;
#X obj 454 361 r resize_all;
#X obj 393 360 int, f 4;
#X obj 393 338 bng 18 250 50 0 empty empty empty 17 7 0 10 #fcfcfc
#000000 #000000;
#X floatatom 415 443 5 0 0 0 - - - 0;
#X obj 305 461 abs;
#X obj 330 461 * 44100;
#X obj 451 466 r resize_all;
#X obj 390 465 int, f 4;
#X obj 390 443 bng 18 250 50 0 empty empty empty 17 7 0 10 #fcfcfc
#000000 #000000;
#X floatatom 414 547 5 0 0 0 - - - 0;
#X obj 304 564 abs;
#X obj 329 564 * 44100;
#X obj 450 570 r resize_all;
#X obj 389 569 int, f 4;
#X obj 389 547 bng 18 250 50 0 empty empty empty 17 7 0 10 #fcfcfc
#000000 #000000;
#X floatatom 414 662 5 0 0 0 - - - 0;
#X obj 304 679 abs;
#X obj 329 679 * 44100;
#X obj 450 684 r resize_all;
#X obj 389 683 int, f 4;
#X obj 389 662 bng 18 250 50 0 empty empty empty 17 7 0 10 #fcfcfc
#000000 #000000;
#X floatatom 413 772 5 0 0 0 - - - 0;
#X obj 303 789 abs;
#X obj 328 789 * 44100;
#X obj 449 795 r resize_all;
#X obj 388 794 int, f 4;
#X obj 388 772 bng 18 250 50 0 empty empty empty 17 7 0 10 #fcfcfc
#000000 #000000;
#X obj 200 850 bng 20 250 50 0 empty empty empty 17 7 0 10 #fcfcfc
#000000 #000000;
#X obj 200 875 s upd_all;
#X obj 476 10 r upd_all;
#X obj 476 117 r upd_all;
#X obj 476 228 r upd_all;
#X obj 475 336 r upd_all;
#X obj 472 442 r upd_all;
#X obj 471 546 r upd_all;
#X obj 471 660 r upd_all;
#X obj 470 771 r upd_all;
#X obj 278 78 s q_tail;
#X obj 274 197 s a_tail;
#X obj 281 305 s w_tail;
#X obj 280 414 s s_tail;
#X obj 275 518 s e_tail;
#X obj 282 623 s d_tail;
#X obj 279 736 s r_tail;
#X obj 282 849 s f_tail;
#X connect 0 0 2 0;
#X connect 3 0 0 0;
#X connect 3 0 72 0;
#X connect 6 0 5 0;
#X connect 11 0 8 0;
#X connect 12 0 10 0;
#X connect 21 0 14 0;
#X connect 22 0 16 0;
#X connect 23 0 18 0;
#X connect 24 0 20 0;
#X connect 25 0 26 0;
#X connect 27 0 3 0;
#X connect 28 0 6 0;
#X connect 28 0 73 0;
#X connect 29 0 28 0;
#X connect 30 0 11 0;
#X connect 30 0 74 0;
#X connect 31 0 30 0;
#X connect 32 0 12 0;
#X connect 32 0 75 0;
#X connect 33 0 32 0;
#X connect 34 0 21 0;
#X connect 34 0 76 0;
#X connect 35 0 34 0;
#X connect 36 0 22 0;
#X connect 36 0 77 0;
#X connect 37 0 36 0;
#X connect 38 0 23 0;
#X connect 38 0 78 0;
#X connect 39 0 38 0;
#X connect 40 0 24 0;
#X connect 40 0 79 0;
#X connect 41 0 40 0;
#X connect 42 0 80 1;
#X connect 43 0 64 0;
#X connect 43 0 45 0;
#X connect 44 0 53 0;
#X connect 44 0 134 0;
#X connect 53 0 43 0;
#X connect 54 0 65 0;
#X connect 54 0 52 0;
#X connect 55 0 66 0;
#X connect 55 0 51 0;
#X connect 56 0 67 0;
#X connect 56 0 50 0;
#X connect 57 0 68 0;
#X connect 57 0 49 0;
#X connect 58 0 69 0;
#X connect 58 0 48 0;
#X connect 59 0 70 0;
#X connect 59 0 47 0;
#X connect 60 0 71 0;
#X connect 60 0 46 0;
#X connect 61 0 62 0;
#X connect 63 0 42 0;
#X connect 72 0 1 0;
#X connect 73 0 4 0;
#X connect 74 0 7 0;
#X connect 75 0 9 0;
#X connect 76 0 13 0;
#X connect 77 0 15 0;
#X connect 78 0 17 0;
#X connect 79 0 19 0;
#X connect 80 0 44 0;
#X connect 81 0 80 0;
#X connect 82 0 86 1;
#X connect 83 0 84 0;
#X connect 83 0 135 0;
#X connect 84 0 54 0;
#X connect 85 0 82 0;
#X connect 86 0 83 0;
#X connect 87 0 86 0;
#X connect 88 0 92 1;
#X connect 89 0 90 0;
#X connect 89 0 136 0;
#X connect 90 0 55 0;
#X connect 91 0 88 0;
#X connect 92 0 89 0;
#X connect 93 0 92 0;
#X connect 94 0 98 1;
#X connect 95 0 96 0;
#X connect 95 0 137 0;
#X connect 96 0 56 0;
#X connect 97 0 94 0;
#X connect 98 0 95 0;
#X connect 99 0 98 0;
#X connect 100 0 104 1;
#X connect 101 0 102 0;
#X connect 101 0 138 0;
#X connect 102 0 57 0;
#X connect 103 0 100 0;
#X connect 104 0 101 0;
#X connect 105 0 104 0;
#X connect 106 0 110 1;
#X connect 107 0 108 0;
#X connect 107 0 139 0;
#X connect 108 0 58 0;
#X connect 109 0 106 0;
#X connect 110 0 107 0;
#X connect 111 0 110 0;
#X connect 112 0 116 1;
#X connect 113 0 114 0;
#X connect 113 0 140 0;
#X connect 114 0 59 0;
#X connect 115 0 112 0;
#X connect 116 0 113 0;
#X connect 117 0 116 0;
#X connect 118 0 122 1;
#X connect 119 0 120 0;
#X connect 119 0 141 0;
#X connect 120 0 60 0;
#X connect 121 0 118 0;
#X connect 122 0 119 0;
#X connect 123 0 122 0;
#X connect 124 0 125 0;
#X connect 126 0 81 0;
#X connect 127 0 87 0;
#X connect 128 0 93 0;
#X connect 129 0 99 0;
#X connect 130 0 105 0;
#X connect 131 0 111 0;
#X connect 132 0 117 0;
#X connect 133 0 123 0;
