#N canvas 0 30 1920 987 12;
#X obj 5 511 keyname;
#X obj 5 550 keyup;
#X floatatom 5 570 5 0 0 0 - - - 0;
#X symbolatom 5 531 10 0 0 0 - - - 0;
#X msg 235 624 7;
#X msg 202 624 6;
#X msg 169 624 5;
#X msg 136 624 4;
#X msg 103 624 3;
#X msg 70 624 2;
#X msg 37 624 1;
#X msg 5 624 0;
#X msg 5 657 3;
#X obj 116 609 bng 15 250 50 0 empty empty empty 17 7 0 10 #fcfcfc
#000000 #000000;
#X obj 165 677 recorder;
#N canvas 0 50 450 250 (subpatch) 0;
#X array Env_a 220500 float 4;
#X coords 0 1.2 220499 0 130 60 1 0 0;
#X restore 352 115 graph;
#N canvas 0 50 450 250 (subpatch) 0;
#X array Track_w 220500 float 4;
#X coords 0 1 220499 -1 130 80 1 0 0;
#X restore 588 20 graph;
#N canvas 0 50 450 250 (subpatch) 0;
#X array Env_w 220500 float 4;
#X coords 0 1.2 220499 0 130 60 1 0 0;
#X restore 588 115 graph;
#N canvas 0 50 450 250 (subpatch) 0;
#X array Track_s 220500 float 4;
#X coords 0 1 220499 -1 130 80 1 0 0;
#X restore 826 19 graph;
#N canvas 0 50 450 250 (subpatch) 0;
#X array Env_s 220500 float 4;
#X coords 0 1.2 220499 0 130 60 1 0 0;
#X restore 826 114 graph;
#N canvas 0 50 450 250 (subpatch) 0;
#X array Track_e 220500 float 4;
#X coords 0 1 220499 -1 130 80 1 0 0;
#X restore 1061 19 graph;
#N canvas 0 50 450 250 (subpatch) 0;
#X array Env_e 220500 float 4;
#X coords 0 1.2 220499 0 130 60 1 0 0;
#X restore 1061 114 graph;
#N canvas 0 50 450 250 (subpatch) 0;
#X array Track_d 220500 float 4;
#X coords 0 1 220499 -1 130 80 1 0 0;
#X restore 1293 19 graph;
#N canvas 0 50 450 250 (subpatch) 0;
#X array Env_d 220500 float 4;
#X coords 0 1.2 220499 0 130 60 1 0 0;
#X restore 1293 114 graph;
#N canvas 0 50 450 250 (subpatch) 0;
#X array Track_r 220500 float 4;
#X coords 0 1 220499 -1 130 80 1 0 0;
#X restore 1535 19 graph;
#N canvas 0 50 450 250 (subpatch) 0;
#X array Env_r 220500 float 4;
#X coords 0 1.2 220499 0 130 60 1 0 0;
#X restore 1535 114 graph;
#N canvas 0 50 450 250 (subpatch) 0;
#X array Track_f 220500 float 4;
#X coords 0 1 220499 -1 130 80 1 0 0;
#X restore 1780 19 graph;
#N canvas 735 398 450 250 (subpatch) 0;
#X array Env_f 220500 float 4;
#X coords 0 1.2 220499 0 130 60 1 0 0;
#X restore 1780 114 graph;
#N canvas 735 398 450 250 (subpatch) 0;
#X array Track_a 220500 float 4;
#X coords 0 1 220499 -1 130 80 1 0 0;
#X restore 352 18 graph;
#X obj 5 589 select 81 65 87 83 69 68 82 70, f 38;
#X obj 3 715 select 113 97 119 115 101 100 114 102, f 39;
#X msg 8 10 \; pd dsp 1;
#X msg 8 47 \; pd dsp 0;
#X obj 8 97 bng 30 250 50 0 empty empty Prepare 17 7 0 10 #fcfcfc #000000
#000000;
#N canvas 0 50 450 250 (subpatch) 0;
#X array Track_q 352800 float 4;
#X coords 0 1 352799 -1 130 80 1 0 0;
#X restore 117 22 graph;
#N canvas 0 50 450 250 (subpatch) 0;
#X array Env_q 352800 float 4;
#X coords 0 1.2 352799 0 130 60 1 0 0;
#X restore 117 117 graph;
#X obj 120 191 hsl 125 15 0 8 0 1 empty empty Head_q -2 -8 0 10 #dfdfdf
#000000 #000000 0 0;
#X obj 119 237 hsl 125 15 0 8 0 1 empty empty Tail_q -2 -8 0 10 #dfdfdf
#000000 #000000 7750 0;
#X obj 117 208 nbx 5 14 0 1e+37 0 0 empty empty empty 0 -8 0 10 #fcfcfc
#000000 #000000 0 256;
#X obj 116 252 nbx 5 14 0 1e+37 0 0 empty empty empty 0 -8 0 10 #fcfcfc
#000000 #000000 0 256;
#X obj 210 410 bng 15 250 50 0 empty empty Play 17 7 0 10 #fcfcfc #000000
#000000;
#X obj 151 410 bng 15 250 50 0 empty empty Reverse 17 7 0 10 #fcfcfc
#000000 #000000;
#X obj 121 280 hsl 125 15 0.01 4 0 1 empty empty Stretch -2 -8 0 10
#dfdfdf #000000 #000000 5600 1;
#X floatatom 134 316 5 0 0 0 - - - 0;
#X obj 43 209 bng 15 250 50 0 empty empty head_upd 17 7 0 10 #fcfcfc
#000000 #000000;
#X obj 47 269 bng 15 250 50 0 empty empty tail_upd 17 7 0 10 #fcfcfc
#000000 #000000;
#X obj 78 291 -;
#X floatatom 97 316 5 0 0 0 - - - 0;
#X msg 152 295 1;
#X obj 8 156 tgl 15 0 empty empty empty 17 7 0 10 #fcfcfc #000000 #000000
0 1;
#X msg 8 171 0;
#X obj 8 201 tgl 15 0 empty empty empty 17 7 0 10 #fcfcfc #000000 #000000
0 1;
#X msg 8 216 5;
#X obj 181 295 receive q;
#X obj 210 395 bng 15 250 50 0 empty empty empty 17 7 0 10 #fcfcfc
#000000 #000000;
#X obj 210 370 r looper;
#X obj 3 395 bng 15 250 50 0 empty empty empty 17 7 0 10 #fcfcfc #000000
#000000;
#X floatatom 40 355 5 0 0 0 - - - 0;
#X obj 40 335 * 1000;
#X obj 3 374 metro 5000;
#X obj 3 349 tgl 15 0 empty empty empty 17 7 0 10 #bbbbbb #000000 #000000
0 1;
#X text 24 391 async looper;
#X obj 3 308 r alq;
#X msg 97 425 0;
#X obj 355 191 hsl 125 15 0 5 0 1 empty empty Head_a -2 -8 0 10 #dfdfdf
#000000 #000000 0 0;
#X obj 354 237 hsl 125 15 0 5 0 1 empty empty Tail_a -2 -8 0 10 #dfdfdf
#000000 #000000 12400 0;
#X obj 352 208 nbx 5 14 0 1e+37 0 0 empty empty empty 0 -8 0 10 #fcfcfc
#000000 #000000 0 256;
#X obj 351 252 nbx 5 14 0 1e+37 0 0 empty empty empty 0 -8 0 10 #fcfcfc
#000000 #000000 0 256;
#X obj 422 407 bng 15 250 50 0 empty empty Play 17 7 0 10 #fcfcfc #000000
#000000;
#X obj 362 407 bng 15 250 50 0 empty empty Reverse 17 7 0 10 #fcfcfc
#000000 #000000;
#X obj 358 278 hsl 125 15 0.01 4 0 1 empty empty Stretch -2 -8 0 10
#dfdfdf #000000 #000000 1200 1;
#X floatatom 355 313 5 0 0 0 - - - 0;
#X obj 339 208 bng 15 250 50 0 empty empty empty 17 7 0 10 #fcfcfc
#000000 #000000;
#X obj 338 262 bng 15 250 50 0 empty empty empty 17 7 0 10 #fcfcfc
#000000 #000000;
#X obj 318 290 -;
#X floatatom 318 314 5 0 0 0 - - - 0;
#X msg 388 293 1;
#X obj 591 190 hsl 125 15 0 5 0 1 empty empty Head_w -2 -8 0 10 #dfdfdf
#000000 #000000 0 0;
#X obj 590 237 hsl 125 15 0 5 0 1 empty empty Tail_w -2 -8 0 10 #dfdfdf
#000000 #000000 12400 0;
#X obj 588 208 nbx 5 14 -1e+37 1e+37 0 0 empty empty empty 0 -8 0 10
#fcfcfc #000000 #000000 0 256;
#X obj 587 252 nbx 5 14 0 1e+37 0 0 empty empty empty 0 -8 0 10 #fcfcfc
#000000 #000000 0 256;
#X obj 680 406 bng 15 250 50 0 empty empty Play 17 7 0 10 #fcfcfc #000000
#000000;
#X obj 620 406 bng 15 250 50 0 empty empty Reverse 17 7 0 10 #fcfcfc
#000000 #000000;
#X obj 594 280 hsl 125 15 0.01 4 0 1 empty empty Stretch -2 -8 0 10
#dfdfdf #000000 #000000 900 1;
#X floatatom 591 315 5 0 0 0 - - - 0;
#X obj 574 208 bng 15 250 50 0 empty empty empty 17 7 0 10 #fcfcfc
#000000 #000000;
#X obj 575 260 bng 15 250 50 0 empty empty empty 17 7 0 10 #fcfcfc
#000000 #000000;
#X obj 554 289 -;
#X floatatom 554 314 5 0 0 0 - - - 0;
#X msg 624 295 1;
#X obj 829 190 hsl 125 15 0 5 0 1 empty empty Head_s -2 -8 0 10 #dfdfdf
#000000 #000000 0 0;
#X obj 828 236 hsl 125 15 0 5 0 1 empty empty Tail_s -2 -8 0 10 #dfdfdf
#000000 #000000 12400 0;
#X obj 826 207 nbx 5 14 0 1e+37 0 0 empty empty empty 0 -8 0 10 #fcfcfc
#000000 #000000 0 256;
#X obj 825 251 nbx 5 14 0 1e+37 0 0 empty empty empty 0 -8 0 10 #fcfcfc
#000000 #000000 0 256;
#X obj 919 404 bng 15 250 50 0 empty empty Play 17 7 0 10 #fcfcfc #000000
#000000;
#X obj 859 404 bng 15 250 50 0 empty empty Reverse 17 7 0 10 #fcfcfc
#000000 #000000;
#X obj 832 279 hsl 125 15 0.01 4 0 1 empty empty Stretch -2 -8 0 10
#dfdfdf #000000 #000000 5500 1;
#X floatatom 829 314 5 0 0 0 - - - 0;
#X obj 813 207 bng 15 250 50 0 empty empty empty 17 7 0 10 #fcfcfc
#000000 #000000;
#X obj 812 260 bng 15 250 50 0 empty empty empty 17 7 0 10 #fcfcfc
#000000 #000000;
#X obj 792 287 -;
#X floatatom 792 312 5 0 0 0 - - - 0;
#X msg 862 294 1;
#X obj 1064 190 hsl 125 15 0 5 0 1 empty empty Head_e -2 -8 0 10 #dfdfdf
#000000 #000000 0 0;
#X obj 1063 236 hsl 125 15 0 5 0 1 empty empty Tail_e -2 -8 0 10 #dfdfdf
#000000 #000000 12400 0;
#X obj 1061 207 nbx 5 14 0 1e+37 0 0 empty empty empty 0 -8 0 10 #fcfcfc
#000000 #000000 0 256;
#X obj 1060 251 nbx 5 14 0 1e+37 0 0 empty empty empty 0 -8 0 10 #fcfcfc
#000000 #000000 0 256;
#X obj 1149 404 bng 15 250 50 0 empty empty Play 17 7 0 10 #fcfcfc
#000000 #000000;
#X obj 1089 404 bng 15 250 50 0 empty empty Reverse 17 7 0 10 #fcfcfc
#000000 #000000;
#X obj 1067 277 hsl 125 15 0.01 4 0 1 empty empty Stretch -2 -8 0 10
#dfdfdf #000000 #000000 900 1;
#X floatatom 1064 312 5 0 0 0 - - - 0;
#X obj 1047 207 bng 15 250 50 0 empty empty empty 17 7 0 10 #fcfcfc
#000000 #000000;
#X obj 1048 259 bng 15 250 50 0 empty empty empty 17 7 0 10 #fcfcfc
#000000 #000000;
#X obj 1027 287 -;
#X floatatom 1027 312 5 0 0 0 - - - 0;
#X msg 1096 292 1;
#X obj 1296 190 hsl 125 15 0 5 0 1 empty empty Head_d -2 -8 0 10 #dfdfdf
#000000 #000000 0 0;
#X obj 1295 236 hsl 125 15 0 5 0 1 empty empty Tail_d -2 -8 0 10 #dfdfdf
#000000 #000000 12400 0;
#X obj 1293 207 nbx 5 14 0 1e+37 0 0 empty empty empty 0 -8 0 10 #fcfcfc
#000000 #000000 0 256;
#X obj 1292 251 nbx 5 14 0 1e+37 0 0 empty empty empty 0 -8 0 10 #fcfcfc
#000000 #000000 0 256;
#X obj 1378 404 bng 15 250 50 0 empty empty Play 17 7 0 10 #fcfcfc
#000000 #000000;
#X obj 1318 404 bng 15 250 50 0 empty empty Reverse 17 7 0 10 #fcfcfc
#000000 #000000;
#X obj 1299 278 hsl 125 15 0.01 4 0 1 empty empty Stretch -2 -8 0 10
#dfdfdf #000000 #000000 900 1;
#X floatatom 1296 313 5 0 0 0 - - - 0;
#X obj 1279 208 bng 15 250 50 0 empty empty empty 17 7 0 10 #fcfcfc
#000000 #000000;
#X obj 1280 259 bng 15 250 50 0 empty empty empty 17 7 0 10 #fcfcfc
#000000 #000000;
#X obj 1259 288 -;
#X floatatom 1259 313 5 0 0 0 - - - 0;
#X msg 1328 293 1;
#X obj 1538 190 hsl 125 15 0 5 0 1 empty empty Head_r -2 -8 0 10 #dfdfdf
#000000 #000000 0 0;
#X obj 1537 236 hsl 125 15 0 5 0 1 empty empty Tail_r -2 -8 0 10 #dfdfdf
#000000 #000000 12400 0;
#X obj 1535 207 nbx 5 14 0 1e+37 0 0 empty empty empty 0 -8 0 10 #fcfcfc
#000000 #000000 0 256;
#X obj 1534 251 nbx 5 14 0 1e+37 0 0 empty empty empty 0 -8 0 10 #fcfcfc
#000000 #000000 0 256;
#X obj 1614 405 bng 15 250 50 0 empty empty Play 17 7 0 10 #fcfcfc
#000000 #000000;
#X obj 1553 405 bng 15 250 50 0 empty empty Reverse 17 7 0 10 #fcfcfc
#000000 #000000;
#X obj 1541 279 hsl 125 15 0.01 4 0 1 empty empty Stretch -2 -8 0 10
#dfdfdf #000000 #000000 2000 1;
#X floatatom 1538 314 5 0 0 0 - - - 0;
#X obj 1522 208 bng 15 250 50 0 empty empty empty 17 7 0 10 #fcfcfc
#000000 #000000;
#X obj 1522 255 bng 15 250 50 0 empty empty empty 17 7 0 10 #fcfcfc
#000000 #000000;
#X obj 1501 288 -;
#X floatatom 1501 313 5 0 0 0 - - - 0;
#X msg 1571 294 1;
#X obj 1783 190 hsl 125 15 0 5 0 1 empty empty Head_f -2 -8 0 10 #dfdfdf
#000000 #000000 0 0;
#X obj 1782 236 hsl 125 15 0 5 0 1 empty empty Tail_f -2 -8 0 10 #dfdfdf
#000000 #000000 12400 0;
#X obj 1780 207 nbx 5 14 0 1e+37 0 0 empty empty empty 0 -8 0 10 #fcfcfc
#000000 #000000 0 256;
#X obj 1779 251 nbx 5 14 0 1e+37 0 0 empty empty empty 0 -8 0 10 #fcfcfc
#000000 #000000 0 256;
#X obj 1856 408 bng 15 250 50 0 empty empty Play 17 7 0 10 #fcfcfc
#000000 #000000;
#X obj 1795 408 bng 15 250 50 0 empty empty Reverse 17 7 0 10 #fcfcfc
#000000 #000000;
#X obj 1786 279 hsl 125 15 0.01 4 0 1 empty empty Stretch -2 -8 0 10
#dfdfdf #000000 #000000 1000 1;
#X floatatom 1783 314 5 0 0 0 - - - 0;
#X obj 1755 208 bng 15 250 50 0 empty empty empty 17 7 0 10 #fcfcfc
#000000 #000000;
#X obj 1756 260 bng 15 250 50 0 empty empty empty 17 7 0 10 #fcfcfc
#000000 #000000;
#X obj 1735 289 -;
#X floatatom 1735 314 5 0 0 0 - - - 0;
#X msg 1816 294 1;
#X obj 1846 294 receive f;
#X obj 1601 294 receive r;
#X obj 1359 293 receive d;
#X obj 1127 292 receive e;
#X obj 892 294 receive s;
#X obj 654 295 receive w;
#X obj 418 293 receive a;
#X obj 422 392 bng 15 250 50 0 empty empty empty 17 7 0 10 #fcfcfc
#000000 #000000;
#X obj 422 367 r looper;
#X obj 680 391 bng 15 250 50 0 empty empty empty 17 7 0 10 #fcfcfc
#000000 #000000;
#X obj 680 366 r looper;
#X obj 919 389 bng 15 250 50 0 empty empty empty 17 7 0 10 #fcfcfc
#000000 #000000;
#X obj 919 364 r looper;
#X obj 1149 389 bng 15 250 50 0 empty empty empty 17 7 0 10 #fcfcfc
#000000 #000000;
#X obj 1149 364 r looper;
#X obj 1378 389 bng 15 250 50 0 empty empty empty 17 7 0 10 #fcfcfc
#000000 #000000;
#X obj 1378 364 r looper;
#X obj 1614 390 bng 15 250 50 0 empty empty empty 17 7 0 10 #fcfcfc
#000000 #000000;
#X obj 1614 365 r looper;
#X obj 1856 393 bng 15 250 50 0 empty empty empty 17 7 0 10 #fcfcfc
#000000 #000000;
#X obj 1856 368 r looper;
#X obj 1689 393 bng 15 250 50 0 empty empty empty 17 7 0 10 #fcfcfc
#000000 #000000;
#X floatatom 1726 353 5 0 0 0 - - - 0;
#X obj 1726 333 * 1000;
#X obj 1689 373 metro 5000;
#X obj 1689 350 tgl 15 0 empty empty empty 17 7 0 10 #bbbbbb #000000
#000000 0 1;
#X obj 1455 390 bng 15 250 50 0 empty empty empty 17 7 0 10 #fcfcfc
#000000 #000000;
#X floatatom 1492 352 5 0 0 0 - - - 0;
#X obj 1492 332 * 1000;
#X obj 1455 371 metro 5000;
#X obj 1455 348 tgl 15 0 empty empty empty 17 7 0 10 #bbbbbb #000000
#000000 0 1;
#X obj 1213 389 bng 15 250 50 0 empty empty empty 17 7 0 10 #fcfcfc
#000000 #000000;
#X floatatom 1250 352 5 0 0 0 - - - 0;
#X obj 1250 332 * 1000;
#X obj 1213 370 metro 5000;
#X obj 1213 347 tgl 15 0 empty empty empty 17 7 0 10 #bbbbbb #000000
#000000 0 1;
#X obj 981 389 bng 15 250 50 0 empty empty empty 17 7 0 10 #fcfcfc
#000000 #000000;
#X floatatom 1018 351 5 0 0 0 - - - 0;
#X obj 1018 331 * 1000;
#X obj 981 370 metro 5000;
#X obj 981 347 tgl 15 0 empty empty empty 17 7 0 10 #bbbbbb #000000
#000000 0 1;
#X obj 746 389 bng 15 250 50 0 empty empty empty 17 7 0 10 #fcfcfc
#000000 #000000;
#X floatatom 783 351 5 0 0 0 - - - 0;
#X obj 783 331 * 1000;
#X obj 746 370 metro 5000;
#X obj 746 347 tgl 15 0 empty empty empty 17 7 0 10 #bbbbbb #000000
#000000 0 1;
#X obj 508 391 bng 15 250 50 0 empty empty empty 17 7 0 10 #fcfcfc
#000000 #000000;
#X floatatom 545 353 5 0 0 0 - - - 0;
#X obj 545 333 * 1000;
#X obj 508 372 metro 5000;
#X obj 508 349 tgl 15 0 empty empty empty 17 7 0 10 #bbbbbb #000000
#000000 0 1;
#X obj 271 392 bng 15 250 50 0 empty empty empty 17 7 0 10 #fcfcfc
#000000 #000000;
#X floatatom 308 353 5 0 0 0 - - - 0;
#X obj 308 333 * 1000;
#X obj 271 372 metro 5000;
#X obj 271 350 tgl 15 0 empty empty empty 17 7 0 10 #bbbbbb #000000
#000000 0 1;
#X obj 271 307 r ala;
#X obj 1689 296 r alf;
#X obj 1455 294 r alr;
#X obj 1213 293 r ald;
#X obj 981 296 r ale;
#X obj 746 298 r als;
#X obj 508 305 r alw;
#X msg 312 422 1;
#X msg 568 421 2;
#X msg 806 419 3;
#X msg 1037 419 4;
#X msg 1265 419 5;
#X msg 1502 420 6;
#X msg 1743 423 7;
#X obj 3 735 bng 15 250 50 0 e empty empty 17 7 0 10 #fcfcfc #000000
#000000;
#X obj 35 735 bng 15 250 50 0 f empty empty 17 7 0 10 #fcfcfc #000000
#000000;
#X obj 67 735 bng 15 250 50 0 g empty empty 17 7 0 10 #fcfcfc #000000
#000000;
#X obj 99 735 bng 15 250 50 0 h empty empty 17 7 0 10 #fcfcfc #000000
#000000;
#X obj 131 735 bng 15 250 50 0 e empty empty 17 7 0 10 #fcfcfc #000000
#000000;
#X obj 163 735 bng 15 250 50 0 f empty empty 17 7 0 10 #fcfcfc #000000
#000000;
#X obj 195 734 bng 15 250 50 0 g empty empty 17 7 0 10 #fcfcfc #000000
#000000;
#X obj 227 735 bng 15 250 50 0 h empty empty 17 7 0 10 #fcfcfc #000000
#000000;
#X obj 3 754 s lq;
#X obj 178 390 r lq;
#X obj 35 754 s la;
#X obj 67 754 s lw;
#X obj 99 754 s ls;
#X obj 131 754 s le;
#X obj 163 754 s ld;
#X obj 195 754 s lr;
#X obj 227 754 s lf;
#X obj 129 445 default_play;
#X obj 341 442 default_play;
#X obj 599 441 default_play;
#X obj 838 439 default_play;
#X obj 1068 439 default_play;
#X obj 1297 439 default_play;
#X obj 1533 440 default_play;
#X obj 1775 443 default_play;
#X obj 1 823 bng 15 250 50 0 e empty empty 17 7 0 10 #fcfcfc #000000
#000000;
#X obj 33 823 bng 15 250 50 0 f empty empty 17 7 0 10 #fcfcfc #000000
#000000;
#X obj 65 823 bng 15 250 50 0 g empty empty 17 7 0 10 #fcfcfc #000000
#000000;
#X obj 97 823 bng 15 250 50 0 h empty empty 17 7 0 10 #fcfcfc #000000
#000000;
#X obj 129 823 bng 15 250 50 0 e empty empty 17 7 0 10 #fcfcfc #000000
#000000;
#X obj 161 823 bng 15 250 50 0 f empty empty 17 7 0 10 #fcfcfc #000000
#000000;
#X obj 193 822 bng 15 250 50 0 g empty empty 17 7 0 10 #fcfcfc #000000
#000000;
#X obj 225 823 bng 15 250 50 0 h empty empty 17 7 0 10 #fcfcfc #000000
#000000;
#X obj 1 803 select 49 122 50 120 51 99 52 118, f 39;
#X obj 33 842 s ra;
#X obj 1 842 s rq;
#X obj 65 842 s rw;
#X obj 97 842 s rs;
#X obj 129 842 s re;
#X obj 161 842 s rd;
#X obj 193 842 s rr;
#X obj 225 842 s rf;
#X obj 178 370 r rq;
#X obj 390 387 r la;
#X obj 390 367 r ra;
#X obj 648 386 r lw;
#X obj 648 366 r rw;
#X obj 887 384 r ls;
#X obj 887 364 r rs;
#X obj 1117 384 r le;
#X obj 1117 364 r re;
#X obj 1346 384 r ld;
#X obj 1346 364 r rd;
#X obj 1582 385 r lr;
#X obj 1582 365 r rr;
#X obj 1824 388 r lf;
#X obj 1824 368 r rf;
#X text 0 696 Lower-Case Keys qawsedrf for playback;
#X text -1 775 Lower-Case Keys 1z2x3c4v for reverse playback;
#X text 52 565 Upper-Case Keys for recording;
#X obj 2 904 bng 15 250 50 0 empty empty empty 17 7 0 10 #fcfcfc #000000
#000000;
#X obj 53 904 bng 15 250 50 0 empty empty empty 17 7 0 10 #fcfcfc #000000
#000000;
#X obj 104 904 bng 15 250 50 0 empty empty empty 17 7 0 10 #fcfcfc
#000000 #000000;
#X obj 155 904 bng 15 250 50 0 empty empty empty 17 7 0 10 #fcfcfc
#000000 #000000;
#X obj 2 939 f;
#X obj 53 939 f;
#X obj 104 939 f;
#X obj 155 939 f;
#X msg 2 919 send q;
#X msg 53 919 send a;
#X msg 104 919 send w;
#X msg 155 919 send s;
#X obj 207 904 bng 15 250 50 0 empty empty empty 17 7 0 10 #fcfcfc
#000000 #000000;
#X obj 258 904 bng 15 250 50 0 empty empty empty 17 7 0 10 #fcfcfc
#000000 #000000;
#X obj 309 904 bng 15 250 50 0 empty empty empty 17 7 0 10 #fcfcfc
#000000 #000000;
#X obj 360 904 bng 15 250 50 0 empty empty empty 17 7 0 10 #fcfcfc
#000000 #000000;
#X obj 207 939 f;
#X obj 258 939 f;
#X obj 309 939 f;
#X obj 360 939 f;
#X msg 207 919 send e;
#X msg 258 919 send d;
#X msg 309 919 send r;
#X msg 360 919 send f;
#X obj 2 881 sel F1 F2 F3 F4 F5 F6 F7 F8, f 59;
#X obj 382 837 key;
#X floatatom 382 862 5 0 0 0 - - - 0;
#X obj 310 838 keyname;
#X symbolatom 310 862 10 0 0 0 - - - 0;
#X obj 421 825 bng 15 250 50 0 empty empty empty 17 7 0 10 #fcfcfc
#000000 #000000;
#X obj 465 824 bng 15 250 50 0 empty empty empty 17 7 0 10 #fcfcfc
#000000 #000000;
#X floatatom 421 879 16 0.01 5 0 - - - 0;
#X obj 421 859 +;
#X msg 421 839 -0.01;
#X msg 465 839 0.01;
#X obj 421 804 sel Left Right Up Down, f 27;
#X obj 504 823 bng 15 250 50 0 empty empty empty 17 7 0 10 #fcfcfc
#000000 #000000;
#X obj 535 823 bng 15 250 50 0 empty empty empty 17 7 0 10 #fcfcfc
#000000 #000000;
#X msg 504 838 1;
#X msg 535 838 0.1;
#X text 289 881 Stretch Controller;
#X obj 277 638 int;
#X floatatom 314 639 5 0 0 0 - - - 0;
#X obj 283 618 hsl 100 15 0 5000 0 1 empty empty Rec_delay -2 -8 0
10 #dfdfdf #000000 #000000 5900 1;
#X obj 277 550 select p;
#X obj 277 569 bng 15 250 50 0 empty empty empty 17 7 0 10 #fcfcfc
#000000 #000000;
#X msg 277 584 send del_t;
#X obj 386 641 i;
#X obj 418 641 + 1;
#X floatatom 386 701 5 0 0 0 - - - 0;
#X obj 386 661 / 2;
#X obj 386 681 % 2;
#X obj 386 720 tgl 20 0 empty empty empty 17 7 0 10 #bbbbbb #000000
#000000 0 1;
#X obj 386 740 metro;
#X msg 386 760 send looper;
#X obj 386 780 int 1;
#X obj 466 617 vsl 15 100 500 5000 0 0 empty empty Time_Control 18
6 0 10 #dfdfdf #000000 #000000 0 0;
#X floatatom 466 721 5 0 0 0 - - - 0;
#X obj 507 663 bng 15 250 50 0 empty empty empty 17 7 0 10 #fcfcfc
#000000 #000000;
#X obj 530 662 bng 15 250 50 0 empty empty empty 17 7 0 10 #fcfcfc
#000000 #000000;
#X obj 507 700 +;
#X msg 507 679 100;
#X msg 536 679 -100;
#X obj 635 645 select ! @ # $ % ^ & *, f 32;
#X obj 575 645 i;
#X obj 607 645 + 1;
#X floatatom 575 705 5 0 0 0 - - - 0;
#X obj 575 665 / 2;
#X obj 575 685 % 2;
#X obj 575 732 tgl 20 0 empty empty empty 17 7 0 10 #bbbbbb #000000
#000000 0 1;
#X obj 635 671 bng 15 250 50 0 empty empty empty 17 7 0 10 #fcfcfc
#000000 #000000;
#X obj 662 671 bng 15 250 50 0 empty empty empty 17 7 0 10 #fcfcfc
#000000 #000000;
#X obj 690 671 bng 15 250 50 0 empty empty empty 17 7 0 10 #fcfcfc
#000000 #000000;
#X obj 717 671 bng 15 250 50 0 empty empty empty 17 7 0 10 #fcfcfc
#000000 #000000;
#X obj 745 671 bng 15 250 50 0 empty empty empty 17 7 0 10 #fcfcfc
#000000 #000000;
#X obj 773 671 bng 15 250 50 0 empty empty empty 17 7 0 10 #fcfcfc
#000000 #000000;
#X obj 800 671 bng 15 250 50 0 empty empty empty 17 7 0 10 #fcfcfc
#000000 #000000;
#X obj 828 671 bng 15 250 50 0 empty empty empty 17 7 0 10 #fcfcfc
#000000 #000000;
#X msg 635 696 send alq;
#X msg 662 719 send ala;
#X msg 690 742 send alw;
#X msg 717 766 send als;
#X msg 745 692 send ale;
#X msg 773 717 send ald;
#X msg 800 741 send alr;
#X msg 827 766 send alf;
#X obj 635 719 int;
#X obj 662 742 int;
#X obj 690 766 int;
#X obj 745 717 int;
#X obj 773 741 int;
#X obj 717 788 int;
#X obj 800 766 int;
#X obj 827 790 int;
#X obj 386 534 keyname;
#X symbolatom 386 558 10 0 0 0 - - - 0;
#X obj 386 583 select l L;
#X text 634 618 Async Looper;
#X text 380 620 Sync Looper;
#X obj 1041 673 hsl 128 15 0 5000 0 0 empty empty Duration -2 -8 0
10 #dfdfdf #000000 #000000 0 0;
#X floatatom 1134 688 5 0 0 0 - - - 0;
#X obj 1038 688 s grain_dur;
#X obj 1182 727 hradio 15 1 0 8 empty empty Track_number 0 -8 0 10
#dfdfdf #000000 #000000 0;
#X floatatom 1235 742 5 0 0 0 - - - 0;
#X obj 1177 781 clone grain 8;
#X msg 1177 761 next \$1;
#X msg 1235 761 all \$1;
#X obj 1177 635 phasor~;
#X obj 1177 675 snapshot~;
#X floatatom 1177 695 9 0 0 0 - - - 0;
#X obj 1177 655 *~ 220500;
#X obj 1042 620 tgl 20 0 empty empty empty 17 7 0 10 #bbbbbb #000000
#000000 0 1;
#X obj 1055 640 metro 125;
#X obj 1044 601 hsl 128 15 10 5000 1 0 empty empty time -2 -8 0 10
#dfdfdf #000000 #000000 0 0;
#X floatatom 1138 616 5 0 0 0 - - - 0;
#X floatatom 1177 616 5 0 1 0 - - - 0;
#X obj 1180 601 hsl 128 15 -3 3 0 0 empty empty empty -2 -8 0 10 #dfdfdf
#000000 #000000 0 0;
#X obj 507 720 abs;
#X obj 421 898 moses 0;
#X msg 421 918 0.1;
#X floatatom 467 919 12 0 0 0 - - - 0;
#X obj 1177 581 r playback_rate;
#X text 77 550 manage record start delay ->;
#X obj 1068 581 r granular_time;
#X obj 982 645 i;
#X obj 1016 645 + 1;
#X floatatom 982 705 5 0 0 0 - - - 0;
#X obj 982 665 / 2;
#X obj 982 685 % 2;
#X obj 982 625 select g;
#X obj 982 582 keyname;
#X symbolatom 982 606 3 0 0 0 - - - 0;
#X obj 1116 740 bng 15 250 50 0 empty empty empty 17 7 0 10 #fcfcfc
#000000 #000000;
#X obj 1139 739 bng 15 250 50 0 empty empty empty 17 7 0 10 #fcfcfc
#000000 #000000;
#X obj 1116 777 +;
#X obj 1141 777 abs;
#X obj 1038 710 keyname;
#X symbolatom 1038 734 10 0 0 0 - - - 0;
#X msg 1116 757 10;
#X msg 1145 757 -10;
#X text 980 562 Granular Synthesis;
#X text 446 736 adjust max time!;
#N canvas 0 50 450 250 (subpatch) 0;
#X array grain 100 float 4;
#X coords 0 1 99 -1 200 140 1 0 0;
#X restore 616 826 graph;
#X obj 946 756 *~ 0.99, f 9;
#X obj 1548 612 adc~;
#X obj 1547 651 *~;
#X floatatom 1594 632 5 0 3 0 - - - 0;
#X obj 1494 568 vu 15 120 empty empty -1 -8 0 10 #404040 #000000 1
0;
#X msg 1625 612 0;
#X msg 1594 612 1;
#X obj 1506 696 env~;
#X obj 1493 716 - 90;
#X obj 1632 753 *~;
#X floatatom 1783 734 8 0 0.999 0 - - - 0;
#X obj 1633 809 *~;
#X floatatom 1651 790 5 0 0 0 - - - 0;
#X obj 1786 719 hsl 128 15 0.00999 0.999 1 0 empty empty Security_Potentiometer
-2 -8 0 10 #dfdfdf #000000 #000000 0 1;
#X obj 1654 775 hsl 128 15 0.01 2 1 0 empty empty Volume 4 -6 0 10
#dfdfdf #000000 #000000 0 0;
#X obj 1694 830 env~;
#X floatatom 1694 850 5 0 0 0 - - - 0;
#X obj 1747 889 bng 15 250 50 0 empty empty empty 17 7 0 10 #fcfcfc
#000000 #000000;
#X obj 1789 799 line;
#X floatatom 1789 819 5 0 0 0 - - - 0;
#X obj 1789 759 pack \$1 \$2;
#X obj 1548 680 delwrite~ buff1 10000;
#X floatatom 1706 655 5 0 1000 0 - - - 0;
#X obj 1706 714 line~;
#X obj 1709 611 hsl 128 15 10 1000 0 0 empty empty Delay_Time -2 -8
0 10 #dfdfdf #000000 #000000 0 0;
#X msg 1706 694 \$1 \$2;
#X obj 1706 674 pack \$1 \$2;
#X obj 1776 640 hsl 128 15 10 4000 0 0 empty empty Ramp_Time -2 -8
0 10 #dfdfdf #000000 #000000 0 1;
#X floatatom 1773 655 5 0 0 0 - - - 0;
#X obj 1632 733 delread4~ buff1 10000;
#X text 1491 546 Live Delay;
#X text 1595 590 ON;
#X text 1627 590 OFF;
#X text 1589 569 microphone;
#N canvas 0 50 450 250 (subpatch) 0;
#X array live_delay 1000 float 4;
#X coords 0 0.05 999 -0.05 200 140 1 0 0;
#X restore 827 826 graph;
#X obj 946 734 graph_writer;
#X obj 1542 771 graph_writer;
#X msg 1623 713 2;
#X msg 1079 757 1;
#X obj 1117 810 sel ] [, f 13;
#X obj 1117 831 bng 15 250 50 0 empty empty empty 17 7 0 10 #fcfcfc
#000000 #000000;
#X obj 1161 830 bng 15 250 50 0 empty empty empty 17 7 0 10 #fcfcfc
#000000 #000000;
#X floatatom 1117 885 10 0.01 5 0 - - - 0;
#X obj 1117 865 +;
#X obj 1117 903 s playback_rate;
#X obj 1050 829 bng 15 250 50 0 empty empty empty 17 7 0 10 #fcfcfc
#000000 #000000;
#X obj 1069 829 bng 15 250 50 0 empty empty empty 17 7 0 10 #fcfcfc
#000000 #000000;
#X msg 1050 845 1;
#X obj 1050 809 sel ' \;;
#X msg 1080 845 -1;
#X obj 1050 865 +;
#X floatatom 1050 886 5 0 0 0 - - - 0;
#X obj 1050 905 moses 10;
#X msg 1050 925 10;
#X floatatom 1103 926 5 0 0 0 - - - 0;
#X obj 1050 945 s granular_time;
#X msg 1161 845 -0.01;
#X msg 1117 845 0.01;
#X obj 507 639 sel + _;
#X obj 1116 719 sel = -;
#X obj 1228 831 bng 15 250 50 0 empty empty empty 17 7 0 10 #fcfcfc
#000000 #000000;
#X obj 1265 831 bng 15 250 50 0 empty empty empty 17 7 0 10 #fcfcfc
#000000 #000000;
#X floatatom 1228 886 13 0.01 5 0 - - - 0;
#X obj 1228 866 +;
#X msg 1265 846 -0.01;
#X msg 1228 846 0.01;
#X obj 1228 944 s sec_pot;
#X obj 1253 866 abs;
#X obj 1297 754 keyname;
#X symbolatom 1297 778 7 0 0 0 - - - 0;
#X floatatom 1228 925 5 0 0 0 - - - 0;
#X msg 1274 924 0.99;
#X obj 1837 676 r sec_pot;
#X obj 1334 831 bng 15 250 50 0 empty empty empty 17 7 0 10 #fcfcfc
#000000 #000000;
#X obj 1371 830 bng 15 250 50 0 empty empty empty 17 7 0 10 #fcfcfc
#000000 #000000;
#X obj 1334 865 +;
#X obj 1359 865 abs;
#X obj 1334 811 sel ) (, f 11;
#X msg 1334 845 10;
#X floatatom 1334 885 5 0 0 0 - - - 0;
#X msg 1371 845 -10;
#X obj 1334 904 moses 10;
#X msg 1334 924 10;
#X floatatom 1387 925 5 0 0 0 - - - 0;
#X obj 1334 944 s d_time;
#X obj 1779 591 r d_time;
#X obj 1432 831 bng 15 250 50 0 empty empty empty 17 7 0 10 #fcfcfc
#000000 #000000;
#X obj 1469 830 bng 15 250 50 0 empty empty empty 17 7 0 10 #fcfcfc
#000000 #000000;
#X obj 1432 865 +;
#X obj 1457 865 abs;
#X floatatom 1432 885 5 0 0 0 - - - 0;
#X obj 1432 904 moses 10;
#X msg 1432 924 10;
#X floatatom 1485 925 5 0 0 0 - - - 0;
#X msg 1432 845 20;
#X msg 1469 845 -20;
#X obj 1432 811 sel " :, f 11;
#X obj 1432 944 s r_time;
#X obj 1847 620 r r_time;
#X obj 1228 811 sel ? >, f 11;
#X obj 1745 755 r vol;
#X obj 1527 832 bng 15 250 50 0 empty empty empty 17 7 0 10 #fcfcfc
#000000 #000000;
#X obj 1564 831 bng 15 250 50 0 empty empty empty 17 7 0 10 #fcfcfc
#000000 #000000;
#X floatatom 1527 886 13 0.01 5 0 - - - 0;
#X obj 1527 866 +;
#X msg 1564 846 -0.01;
#X msg 1527 846 0.01;
#X obj 1552 866 abs;
#X floatatom 1527 925 5 0 0 0 - - - 0;
#X msg 1573 924 2;
#X obj 1527 811 sel / ., f 11;
#X obj 1527 944 s vol;
#X text 1604 906 stack overflow;
#X obj 225 677 record_duration_setup;
#X obj 38 137 r q_tail;
#X msg 38 157 range 0 \$1;
#X msg 273 155 range 0 \$1;
#X obj 273 135 r a_tail;
#X msg 509 155 range 0 \$1;
#X obj 509 135 r w_tail;
#X msg 747 154 range 0 \$1;
#X obj 747 134 r s_tail;
#X msg 982 154 range 0 \$1;
#X obj 982 134 r e_tail;
#X msg 1214 154 range 0 \$1;
#X obj 1214 134 r d_tail;
#X msg 1456 154 range 0 \$1;
#X obj 1456 134 r r_tail;
#X msg 1701 154 range 0 \$1;
#X obj 1701 134 r f_tail;
#X obj 129 465 *~ 1;
#X obj 341 462 *~ 1;
#X obj 599 461 *~ 1;
#X obj 838 459 *~ 1;
#X obj 1068 459 *~ 1;
#X obj 1297 459 *~ 1;
#X obj 1533 460 *~ 1;
#X obj 1744 462 *~ 1;
#N canvas 745 74 1034 732 audio_out 0;
#X obj 31 40 catch~ track_q;
#X obj 140 40 catch~ track_a;
#X obj 247 40 catch~ track_w;
#X obj 356 40 catch~ track_s;
#X obj 465 40 catch~ track_e;
#X obj 574 40 catch~ track_d;
#X obj 681 40 catch~ track_r;
#X obj 790 40 catch~ track_f;
#X obj 14 428 catch~ gran;
#X obj 11 532 catch~ live_delay_s;
#X obj 954 63 bng 15 250 50 0 empty empty empty 17 7 0 10 #fcfcfc #000000
#000000;
#X obj 954 38 r looper;
#X obj 388 662 dac~;
#X obj 388 629 *~ 1;
#X obj 425 650 env~, f 6;
#X floatatom 425 675 22 0 0 0 - - - 0;
#X obj 425 699 moses 85;
#X obj 59 84 env~;
#X obj 152 81 env~;
#X obj 256 78 env~;
#X obj 366 76 env~;
#X obj 470 72 env~;
#X obj 583 67 env~;
#X obj 688 72 env~;
#X obj 791 69 env~;
#X obj 14 456 env~;
#X floatatom 14 481 5 0 0 0 - - - 0;
#X obj 15 580 env~;
#X floatatom 15 605 5 0 0 0 - - - 0;
#X connect 0 0 13 0;
#X connect 0 0 17 0;
#X connect 1 0 18 0;
#X connect 1 0 13 0;
#X connect 2 0 13 0;
#X connect 2 0 19 0;
#X connect 3 0 13 0;
#X connect 3 0 20 0;
#X connect 4 0 13 0;
#X connect 4 0 21 0;
#X connect 5 0 13 0;
#X connect 5 0 22 0;
#X connect 6 0 13 0;
#X connect 6 0 23 0;
#X connect 7 0 24 0;
#X connect 7 0 13 0;
#X connect 8 0 13 0;
#X connect 8 0 25 0;
#X connect 9 0 27 0;
#X connect 9 0 13 0;
#X connect 11 0 10 0;
#X connect 13 0 12 0;
#X connect 13 0 12 1;
#X connect 13 0 14 0;
#X connect 14 0 15 0;
#X connect 15 0 16 0;
#X connect 25 0 26 0;
#X connect 27 0 28 0;
#X restore 524 946 pd audio_out;
#X obj 945 779 throw~ gran;
#X obj 1634 934 throw~ live_delay_s;
#X obj 128 489 throw~ track_q;
#X obj 340 486 throw~ track_a;
#X obj 599 485 throw~ track_w;
#X obj 837 484 throw~ track_s;
#X obj 1067 482 throw~ track_e;
#X obj 1296 482 throw~ track_d;
#X obj 1533 482 throw~ track_r;
#X obj 1743 494 throw~ track_f;
#X obj 189 470 hsl 128 15 0 1 0 0 empty empty Security_Vol 60 -8 0
10 #dfdfdf #000000 #000000 0 1;
#X obj 410 466 hsl 128 15 0 1 0 0 empty empty Security_Vol 60 -8 0
10 #dfdfdf #000000 #000000 0 1;
#X obj 669 464 hsl 128 15 0 1 0 0 empty empty Security_Vol 60 -8 0
10 #dfdfdf #000000 #000000 0 1;
#X obj 895 462 hsl 128 15 0 1 0 0 empty empty Security_Vol 60 -8 0
10 #dfdfdf #000000 #000000 0 1;
#X obj 1142 462 hsl 128 15 0 1 0 0 empty empty Security_Vol 60 -8 0
10 #dfdfdf #000000 #000000 0 1;
#X obj 1362 462 hsl 128 15 0 1 0 0 empty empty Security_Vol 60 -8 0
10 #dfdfdf #000000 #000000 0 1;
#X obj 1603 463 hsl 128 15 0 1 0 0 empty empty Security_Vol 60 -8 0
10 #dfdfdf #000000 #000000 0 1;
#X obj 1787 477 hsl 128 15 0 1 0 0 empty empty Security_Vol 60 -8 0
10 #dfdfdf #000000 #000000 0 1;
#X obj 244 436 r sec_v_q;
#X obj 472 433 r sec_v_a;
#X obj 733 429 r sec_v_w;
#X obj 957 425 r sec_v_s;
#X obj 1195 427 r sec_v_e;
#X obj 1425 425 r sec_v_d;
#X obj 1665 426 r sec_v_r;
#X obj 1851 494 r sec_v_f;
#X floatatom 272 485 5 0 0 0 - - - 0;
#X floatatom 472 481 5 0 0 0 - - - 0;
#X floatatom 733 479 5 0 0 0 - - - 0;
#X floatatom 957 477 5 0 0 0 - - - 0;
#X floatatom 1196 477 5 0 0 0 - - - 0;
#X floatatom 1425 477 5 0 0 0 - - - 0;
#X floatatom 1665 478 5 0 0 0 - - - 0;
#X floatatom 1851 519 5 0 0 0 - - - 0;
#X obj 733 538 line;
#X msg 733 518 \$1 100;
#X obj 733 498 pack \$1;
#X obj 472 540 line;
#X msg 472 520 \$1 100;
#X obj 472 500 pack \$1;
#X obj 240 524 line;
#X msg 272 524 \$1 100;
#X obj 272 504 pack \$1;
#X obj 957 536 line;
#X msg 957 516 \$1 100;
#X obj 957 496 pack \$1;
#X obj 1196 536 line;
#X msg 1196 516 \$1 100;
#X obj 1196 496 pack \$1;
#X obj 1425 536 line;
#X msg 1425 516 \$1 100;
#X obj 1425 496 pack \$1;
#X obj 1665 540 line;
#X msg 1665 520 \$1 100;
#X obj 1665 500 pack \$1;
#X obj 1851 580 line;
#X msg 1851 560 \$1 100;
#X obj 1851 540 pack \$1;
#X obj 305 740 s sl_on_off;
#X obj 1694 869 moses 81;
#X msg 1789 779 \$2 \, 0.01 400 0.01;
#X obj 1527 905 moses 2.01;
#X obj 1228 905 moses 1;
#X connect 0 1 3 0;
#X connect 1 0 2 0;
#X connect 2 0 29 0;
#X connect 2 0 30 0;
#X connect 2 0 258 0;
#X connect 3 0 329 0;
#X connect 4 0 14 1;
#X connect 5 0 14 1;
#X connect 6 0 14 1;
#X connect 7 0 14 1;
#X connect 8 0 14 1;
#X connect 9 0 14 1;
#X connect 10 0 14 1;
#X connect 11 0 14 1;
#X connect 12 0 14 0;
#X connect 13 0 12 0;
#X connect 29 0 11 0;
#X connect 29 0 13 0;
#X connect 29 1 10 0;
#X connect 29 1 13 0;
#X connect 29 2 9 0;
#X connect 29 2 13 0;
#X connect 29 3 8 0;
#X connect 29 3 13 0;
#X connect 29 4 7 0;
#X connect 29 4 13 0;
#X connect 29 5 6 0;
#X connect 29 5 13 0;
#X connect 29 6 5 0;
#X connect 29 6 13 0;
#X connect 29 7 4 0;
#X connect 29 7 13 0;
#X connect 30 0 225 0;
#X connect 30 1 226 0;
#X connect 30 2 227 0;
#X connect 30 3 228 0;
#X connect 30 4 229 0;
#X connect 30 5 230 0;
#X connect 30 6 231 0;
#X connect 30 7 232 0;
#X connect 33 0 50 0;
#X connect 33 0 52 0;
#X connect 36 0 38 0;
#X connect 36 0 44 0;
#X connect 37 0 39 0;
#X connect 38 0 44 0;
#X connect 38 0 46 1;
#X connect 38 0 242 1;
#X connect 39 0 45 0;
#X connect 39 0 46 0;
#X connect 39 0 242 2;
#X connect 40 0 63 0;
#X connect 40 0 242 6;
#X connect 41 0 63 0;
#X connect 41 0 242 5;
#X connect 42 0 43 0;
#X connect 43 0 242 4;
#X connect 44 0 39 0;
#X connect 44 0 43 0;
#X connect 45 0 43 0;
#X connect 46 0 47 0;
#X connect 47 0 58 0;
#X connect 47 0 242 3;
#X connect 48 0 43 0;
#X connect 49 0 50 0;
#X connect 50 0 36 0;
#X connect 50 0 64 0;
#X connect 50 0 77 0;
#X connect 50 0 90 0;
#X connect 50 0 103 0;
#X connect 50 0 116 0;
#X connect 50 0 129 0;
#X connect 50 0 142 0;
#X connect 51 0 52 0;
#X connect 52 0 37 0;
#X connect 52 0 65 0;
#X connect 52 0 78 0;
#X connect 52 0 91 0;
#X connect 52 0 104 0;
#X connect 52 0 117 0;
#X connect 52 0 130 0;
#X connect 52 0 143 0;
#X connect 53 0 43 0;
#X connect 54 0 40 0;
#X connect 55 0 54 0;
#X connect 56 0 40 0;
#X connect 57 0 59 1;
#X connect 58 0 57 0;
#X connect 59 0 56 0;
#X connect 60 0 59 0;
#X connect 62 0 60 0;
#X connect 63 0 242 0;
#X connect 64 0 66 0;
#X connect 64 0 72 0;
#X connect 65 0 67 0;
#X connect 66 0 72 0;
#X connect 66 0 74 1;
#X connect 66 0 243 1;
#X connect 67 0 73 0;
#X connect 67 0 74 0;
#X connect 67 0 243 2;
#X connect 68 0 218 0;
#X connect 68 0 243 6;
#X connect 69 0 218 0;
#X connect 69 0 243 5;
#X connect 70 0 71 0;
#X connect 71 0 243 4;
#X connect 72 0 67 0;
#X connect 72 0 71 0;
#X connect 73 0 71 0;
#X connect 74 0 75 0;
#X connect 75 0 208 0;
#X connect 75 0 243 3;
#X connect 76 0 71 0;
#X connect 77 0 79 0;
#X connect 77 0 85 0;
#X connect 78 0 80 0;
#X connect 79 0 85 0;
#X connect 79 0 87 1;
#X connect 79 0 244 1;
#X connect 80 0 86 0;
#X connect 80 0 87 0;
#X connect 80 0 244 2;
#X connect 81 0 219 0;
#X connect 81 0 244 6;
#X connect 82 0 219 0;
#X connect 82 0 244 5;
#X connect 83 0 84 0;
#X connect 84 0 244 4;
#X connect 85 0 80 0;
#X connect 85 0 84 0;
#X connect 86 0 84 0;
#X connect 87 0 88 0;
#X connect 88 0 203 0;
#X connect 88 0 244 3;
#X connect 89 0 84 0;
#X connect 90 0 92 0;
#X connect 90 0 98 0;
#X connect 91 0 93 0;
#X connect 91 0 245 2;
#X connect 92 0 98 0;
#X connect 92 0 100 1;
#X connect 92 0 245 1;
#X connect 93 0 99 0;
#X connect 93 0 100 0;
#X connect 94 0 220 0;
#X connect 94 0 245 6;
#X connect 95 0 220 0;
#X connect 95 0 245 5;
#X connect 96 0 97 0;
#X connect 97 0 245 4;
#X connect 98 0 93 0;
#X connect 98 0 97 0;
#X connect 99 0 97 0;
#X connect 100 0 101 0;
#X connect 101 0 198 0;
#X connect 101 0 245 3;
#X connect 102 0 97 0;
#X connect 103 0 105 0;
#X connect 103 0 111 0;
#X connect 104 0 106 0;
#X connect 105 0 111 0;
#X connect 105 0 113 1;
#X connect 105 0 246 1;
#X connect 106 0 112 0;
#X connect 106 0 113 0;
#X connect 106 0 246 2;
#X connect 107 0 221 0;
#X connect 107 0 246 6;
#X connect 108 0 221 0;
#X connect 108 0 246 5;
#X connect 109 0 110 0;
#X connect 110 0 246 4;
#X connect 111 0 106 0;
#X connect 111 0 110 0;
#X connect 112 0 110 0;
#X connect 113 0 114 0;
#X connect 114 0 193 0;
#X connect 114 0 246 3;
#X connect 115 0 110 0;
#X connect 116 0 118 0;
#X connect 116 0 124 0;
#X connect 117 0 119 0;
#X connect 118 0 124 0;
#X connect 118 0 126 1;
#X connect 118 0 247 1;
#X connect 119 0 125 0;
#X connect 119 0 126 0;
#X connect 119 0 247 2;
#X connect 120 0 222 0;
#X connect 120 0 247 6;
#X connect 121 0 222 0;
#X connect 121 0 247 5;
#X connect 122 0 123 0;
#X connect 123 0 247 4;
#X connect 124 0 119 0;
#X connect 124 0 123 0;
#X connect 125 0 123 0;
#X connect 126 0 127 0;
#X connect 127 0 188 0;
#X connect 127 0 247 3;
#X connect 128 0 123 0;
#X connect 129 0 131 0;
#X connect 129 0 137 0;
#X connect 130 0 132 0;
#X connect 131 0 137 0;
#X connect 131 0 139 1;
#X connect 131 0 248 1;
#X connect 132 0 138 0;
#X connect 132 0 139 0;
#X connect 132 0 248 2;
#X connect 133 0 223 0;
#X connect 133 0 248 6;
#X connect 134 0 223 0;
#X connect 134 0 248 5;
#X connect 135 0 136 0;
#X connect 136 0 248 4;
#X connect 137 0 132 0;
#X connect 137 0 136 0;
#X connect 138 0 136 0;
#X connect 139 0 140 0;
#X connect 140 0 183 0;
#X connect 140 0 248 3;
#X connect 141 0 136 0;
#X connect 142 0 144 0;
#X connect 142 0 150 0;
#X connect 143 0 145 0;
#X connect 144 0 150 0;
#X connect 144 0 152 1;
#X connect 144 0 249 1;
#X connect 145 0 151 0;
#X connect 145 0 152 0;
#X connect 145 0 249 2;
#X connect 146 0 224 0;
#X connect 146 0 249 6;
#X connect 147 0 224 0;
#X connect 147 0 249 5;
#X connect 148 0 149 0;
#X connect 149 0 249 4;
#X connect 150 0 145 0;
#X connect 150 0 149 0;
#X connect 151 0 149 0;
#X connect 152 0 153 0;
#X connect 153 0 178 0;
#X connect 153 0 249 3;
#X connect 154 0 149 0;
#X connect 155 0 149 0;
#X connect 156 0 136 0;
#X connect 157 0 123 0;
#X connect 158 0 110 0;
#X connect 159 0 97 0;
#X connect 160 0 84 0;
#X connect 161 0 71 0;
#X connect 162 0 68 0;
#X connect 163 0 162 0;
#X connect 164 0 81 0;
#X connect 165 0 164 0;
#X connect 166 0 94 0;
#X connect 167 0 166 0;
#X connect 168 0 107 0;
#X connect 169 0 168 0;
#X connect 170 0 120 0;
#X connect 171 0 170 0;
#X connect 172 0 133 0;
#X connect 173 0 172 0;
#X connect 174 0 146 0;
#X connect 175 0 174 0;
#X connect 176 0 146 0;
#X connect 177 0 179 1;
#X connect 178 0 177 0;
#X connect 179 0 176 0;
#X connect 180 0 179 0;
#X connect 181 0 133 0;
#X connect 182 0 184 1;
#X connect 183 0 182 0;
#X connect 184 0 181 0;
#X connect 185 0 184 0;
#X connect 186 0 120 0;
#X connect 187 0 189 1;
#X connect 188 0 187 0;
#X connect 189 0 186 0;
#X connect 190 0 189 0;
#X connect 191 0 107 0;
#X connect 192 0 194 1;
#X connect 193 0 192 0;
#X connect 194 0 191 0;
#X connect 195 0 194 0;
#X connect 196 0 94 0;
#X connect 197 0 199 1;
#X connect 198 0 197 0;
#X connect 199 0 196 0;
#X connect 200 0 199 0;
#X connect 201 0 81 0;
#X connect 202 0 204 1;
#X connect 203 0 202 0;
#X connect 204 0 201 0;
#X connect 205 0 204 0;
#X connect 206 0 68 0;
#X connect 207 0 209 1;
#X connect 208 0 207 0;
#X connect 209 0 206 0;
#X connect 210 0 209 0;
#X connect 211 0 210 0;
#X connect 212 0 180 0;
#X connect 213 0 185 0;
#X connect 214 0 190 0;
#X connect 215 0 195 0;
#X connect 216 0 200 0;
#X connect 217 0 205 0;
#X connect 218 0 243 0;
#X connect 219 0 244 0;
#X connect 220 0 245 0;
#X connect 221 0 246 0;
#X connect 222 0 247 0;
#X connect 223 0 248 0;
#X connect 224 0 249 0;
#X connect 225 0 233 0;
#X connect 226 0 235 0;
#X connect 227 0 236 0;
#X connect 228 0 237 0;
#X connect 229 0 238 0;
#X connect 230 0 239 0;
#X connect 231 0 240 0;
#X connect 232 0 241 0;
#X connect 234 0 40 0;
#X connect 242 0 558 0;
#X connect 243 0 559 0;
#X connect 244 0 560 0;
#X connect 245 0 561 0;
#X connect 246 0 562 0;
#X connect 247 0 563 0;
#X connect 248 0 564 0;
#X connect 249 0 565 0;
#X connect 250 0 260 0;
#X connect 251 0 259 0;
#X connect 252 0 261 0;
#X connect 253 0 262 0;
#X connect 254 0 263 0;
#X connect 255 0 264 0;
#X connect 256 0 265 0;
#X connect 257 0 266 0;
#X connect 258 0 250 0;
#X connect 258 1 251 0;
#X connect 258 2 252 0;
#X connect 258 3 253 0;
#X connect 258 4 254 0;
#X connect 258 5 255 0;
#X connect 258 6 256 0;
#X connect 258 7 257 0;
#X connect 267 0 41 0;
#X connect 268 0 68 0;
#X connect 269 0 69 0;
#X connect 270 0 81 0;
#X connect 271 0 82 0;
#X connect 272 0 94 0;
#X connect 273 0 95 0;
#X connect 274 0 107 0;
#X connect 275 0 108 0;
#X connect 276 0 120 0;
#X connect 277 0 121 0;
#X connect 278 0 133 0;
#X connect 279 0 134 0;
#X connect 280 0 146 0;
#X connect 281 0 147 0;
#X connect 285 0 293 0;
#X connect 286 0 294 0;
#X connect 287 0 295 0;
#X connect 288 0 296 0;
#X connect 293 0 289 0;
#X connect 294 0 290 0;
#X connect 295 0 291 0;
#X connect 296 0 292 0;
#X connect 297 0 305 0;
#X connect 298 0 306 0;
#X connect 299 0 307 0;
#X connect 300 0 308 0;
#X connect 305 0 301 0;
#X connect 306 0 302 0;
#X connect 307 0 303 0;
#X connect 308 0 304 0;
#X connect 309 0 285 0;
#X connect 309 1 286 0;
#X connect 309 2 287 0;
#X connect 309 3 288 0;
#X connect 309 4 297 0;
#X connect 309 5 298 0;
#X connect 309 6 299 0;
#X connect 309 7 300 0;
#X connect 310 0 311 0;
#X connect 312 1 313 0;
#X connect 313 0 320 0;
#X connect 313 0 309 0;
#X connect 314 0 318 0;
#X connect 315 0 319 0;
#X connect 316 0 317 1;
#X connect 316 0 403 0;
#X connect 317 0 316 0;
#X connect 318 0 317 0;
#X connect 319 0 317 0;
#X connect 320 0 314 0;
#X connect 320 1 315 0;
#X connect 320 2 321 0;
#X connect 320 3 322 0;
#X connect 321 0 323 0;
#X connect 322 0 324 0;
#X connect 323 0 316 0;
#X connect 324 0 316 0;
#X connect 327 0 326 1;
#X connect 328 0 327 0;
#X connect 329 0 330 0;
#X connect 330 0 331 0;
#X connect 331 0 326 0;
#X connect 332 0 333 0;
#X connect 332 0 335 0;
#X connect 333 0 332 1;
#X connect 334 0 337 0;
#X connect 335 0 336 0;
#X connect 336 0 334 0;
#X connect 337 0 338 0;
#X connect 337 0 625 0;
#X connect 338 0 339 0;
#X connect 339 0 340 0;
#X connect 341 0 342 0;
#X connect 342 0 338 1;
#X connect 342 0 345 1;
#X connect 343 0 346 0;
#X connect 344 0 347 0;
#X connect 345 0 402 0;
#X connect 346 0 345 0;
#X connect 347 0 345 0;
#X connect 348 0 355 0;
#X connect 348 1 356 0;
#X connect 348 2 357 0;
#X connect 348 3 358 0;
#X connect 348 4 359 0;
#X connect 348 5 360 0;
#X connect 348 6 361 0;
#X connect 348 7 362 0;
#X connect 349 0 350 0;
#X connect 349 0 352 0;
#X connect 350 0 349 1;
#X connect 351 0 354 0;
#X connect 351 0 371 1;
#X connect 351 0 372 1;
#X connect 351 0 373 1;
#X connect 351 0 374 1;
#X connect 351 0 375 1;
#X connect 351 0 376 1;
#X connect 351 0 377 1;
#X connect 351 0 378 1;
#X connect 352 0 353 0;
#X connect 353 0 351 0;
#X connect 355 0 363 0;
#X connect 356 0 364 0;
#X connect 357 0 365 0;
#X connect 358 0 366 0;
#X connect 359 0 367 0;
#X connect 360 0 368 0;
#X connect 361 0 369 0;
#X connect 362 0 370 0;
#X connect 363 0 371 0;
#X connect 364 0 372 0;
#X connect 365 0 373 0;
#X connect 366 0 376 0;
#X connect 367 0 374 0;
#X connect 368 0 375 0;
#X connect 369 0 377 0;
#X connect 370 0 378 0;
#X connect 379 1 380 0;
#X connect 380 0 381 0;
#X connect 380 0 348 0;
#X connect 380 0 486 0;
#X connect 381 0 332 0;
#X connect 381 1 349 0;
#X connect 384 0 385 0;
#X connect 384 0 386 0;
#X connect 385 0 419 1;
#X connect 387 0 388 0;
#X connect 388 0 391 0;
#X connect 389 0 428 0;
#X connect 390 0 389 0;
#X connect 391 0 389 1;
#X connect 392 0 395 0;
#X connect 393 0 394 0;
#X connect 394 0 390 0;
#X connect 395 0 393 0;
#X connect 396 0 397 0;
#X connect 396 0 463 0;
#X connect 396 0 466 0;
#X connect 397 0 393 0;
#X connect 398 0 399 0;
#X connect 399 0 397 1;
#X connect 400 0 392 0;
#X connect 401 0 400 0;
#X connect 402 0 341 0;
#X connect 403 0 404 0;
#X connect 403 1 405 0;
#X connect 404 0 405 0;
#X connect 405 0 304 1;
#X connect 405 0 303 1;
#X connect 405 0 302 1;
#X connect 405 0 301 1;
#X connect 405 0 292 1;
#X connect 405 0 291 1;
#X connect 405 0 290 1;
#X connect 405 0 289 1;
#X connect 406 0 401 0;
#X connect 408 0 398 0;
#X connect 409 0 410 0;
#X connect 409 0 412 0;
#X connect 410 0 409 1;
#X connect 411 0 396 0;
#X connect 412 0 413 0;
#X connect 413 0 411 0;
#X connect 414 0 409 0;
#X connect 415 1 416 0;
#X connect 416 0 414 0;
#X connect 417 0 423 0;
#X connect 418 0 424 0;
#X connect 419 0 420 0;
#X connect 420 0 384 0;
#X connect 421 1 422 0;
#X connect 422 0 467 0;
#X connect 422 0 476 0;
#X connect 422 0 487 0;
#X connect 423 0 419 0;
#X connect 424 0 419 0;
#X connect 428 0 463 1;
#X connect 428 0 567 0;
#X connect 429 0 430 0;
#X connect 430 0 435 0;
#X connect 430 0 449 0;
#X connect 431 0 430 1;
#X connect 433 0 431 0;
#X connect 433 0 465 0;
#X connect 433 0 464 0;
#X connect 434 0 431 0;
#X connect 434 0 465 0;
#X connect 434 0 464 0;
#X connect 435 0 436 0;
#X connect 436 0 432 0;
#X connect 437 0 439 0;
#X connect 437 0 449 0;
#X connect 437 0 464 1;
#X connect 438 0 437 1;
#X connect 438 0 448 1;
#X connect 439 0 443 0;
#X connect 439 0 568 0;
#X connect 440 0 439 1;
#X connect 441 0 438 0;
#X connect 442 0 440 0;
#X connect 443 0 444 0;
#X connect 444 0 626 0;
#X connect 445 0 448 0;
#X connect 446 0 447 0;
#X connect 447 0 441 0;
#X connect 447 0 490 0;
#X connect 448 0 627 0;
#X connect 450 0 454 0;
#X connect 451 0 457 0;
#X connect 452 0 450 0;
#X connect 453 0 451 0;
#X connect 454 0 453 0;
#X connect 455 0 456 0;
#X connect 456 0 454 1;
#X connect 457 0 437 0;
#X connect 465 0 464 2;
#X connect 466 0 463 2;
#X connect 467 0 468 0;
#X connect 467 1 469 0;
#X connect 468 0 485 0;
#X connect 469 0 484 0;
#X connect 470 0 471 1;
#X connect 470 0 472 0;
#X connect 471 0 470 0;
#X connect 473 0 475 0;
#X connect 474 0 477 0;
#X connect 475 0 478 0;
#X connect 476 0 473 0;
#X connect 476 1 474 0;
#X connect 477 0 478 0;
#X connect 478 0 479 0;
#X connect 479 0 478 1;
#X connect 479 0 480 0;
#X connect 480 0 481 0;
#X connect 480 1 482 0;
#X connect 481 0 482 0;
#X connect 481 0 479 0;
#X connect 482 0 483 0;
#X connect 484 0 471 0;
#X connect 485 0 471 0;
#X connect 486 0 343 0;
#X connect 486 1 344 0;
#X connect 487 0 417 0;
#X connect 487 1 418 0;
#X connect 488 0 493 0;
#X connect 489 0 492 0;
#X connect 490 0 491 1;
#X connect 490 0 629 0;
#X connect 491 0 495 0;
#X connect 492 0 491 0;
#X connect 493 0 491 0;
#X connect 495 0 490 0;
#X connect 496 1 497 0;
#X connect 497 0 505 0;
#X connect 497 0 524 0;
#X connect 497 0 527 0;
#X connect 497 0 538 0;
#X connect 498 0 494 0;
#X connect 499 0 494 0;
#X connect 499 0 490 0;
#X connect 500 0 441 0;
#X connect 501 0 506 0;
#X connect 502 0 508 0;
#X connect 503 0 504 0;
#X connect 504 0 507 0;
#X connect 505 0 501 0;
#X connect 505 1 502 0;
#X connect 506 0 503 0;
#X connect 507 0 503 1;
#X connect 507 0 509 0;
#X connect 508 0 503 0;
#X connect 509 0 510 0;
#X connect 509 1 511 0;
#X connect 510 0 511 0;
#X connect 510 0 507 0;
#X connect 511 0 512 0;
#X connect 513 0 452 0;
#X connect 514 0 522 0;
#X connect 515 0 523 0;
#X connect 516 0 517 0;
#X connect 517 0 518 0;
#X connect 518 0 516 1;
#X connect 518 0 519 0;
#X connect 519 0 520 0;
#X connect 519 1 521 0;
#X connect 520 0 521 0;
#X connect 520 0 518 0;
#X connect 521 0 525 0;
#X connect 522 0 516 0;
#X connect 523 0 516 0;
#X connect 524 0 514 0;
#X connect 524 1 515 0;
#X connect 526 0 455 0;
#X connect 527 0 488 0;
#X connect 527 1 489 0;
#X connect 528 0 442 0;
#X connect 529 0 534 0;
#X connect 530 0 533 0;
#X connect 531 0 532 1;
#X connect 531 0 628 0;
#X connect 532 0 535 0;
#X connect 533 0 532 0;
#X connect 534 0 532 0;
#X connect 535 0 531 0;
#X connect 536 0 539 0;
#X connect 537 0 531 0;
#X connect 537 0 539 0;
#X connect 538 0 529 0;
#X connect 538 1 530 0;
#X connect 542 0 543 0;
#X connect 543 0 37 0;
#X connect 543 0 36 0;
#X connect 544 0 64 0;
#X connect 544 0 65 0;
#X connect 545 0 544 0;
#X connect 546 0 77 0;
#X connect 546 0 78 0;
#X connect 547 0 546 0;
#X connect 548 0 90 0;
#X connect 548 0 91 0;
#X connect 549 0 548 0;
#X connect 550 0 103 0;
#X connect 550 0 104 0;
#X connect 551 0 550 0;
#X connect 552 0 116 0;
#X connect 552 0 117 0;
#X connect 553 0 552 0;
#X connect 554 0 129 0;
#X connect 554 0 130 0;
#X connect 555 0 554 0;
#X connect 556 0 142 0;
#X connect 556 0 143 0;
#X connect 557 0 556 0;
#X connect 558 0 569 0;
#X connect 559 0 570 0;
#X connect 560 0 571 0;
#X connect 561 0 572 0;
#X connect 562 0 573 0;
#X connect 563 0 574 0;
#X connect 564 0 575 0;
#X connect 565 0 576 0;
#X connect 577 0 558 1;
#X connect 578 0 559 1;
#X connect 579 0 560 1;
#X connect 580 0 561 1;
#X connect 581 0 562 1;
#X connect 582 0 563 1;
#X connect 583 0 564 1;
#X connect 584 0 565 1;
#X connect 585 0 593 0;
#X connect 586 0 594 0;
#X connect 587 0 595 0;
#X connect 588 0 596 0;
#X connect 589 0 597 0;
#X connect 590 0 598 0;
#X connect 591 0 599 0;
#X connect 592 0 600 0;
#X connect 593 0 609 0;
#X connect 594 0 606 0;
#X connect 595 0 603 0;
#X connect 596 0 612 0;
#X connect 597 0 615 0;
#X connect 598 0 618 0;
#X connect 599 0 621 0;
#X connect 600 0 624 0;
#X connect 601 0 579 0;
#X connect 602 0 601 0;
#X connect 603 0 602 0;
#X connect 604 0 578 0;
#X connect 605 0 604 0;
#X connect 606 0 605 0;
#X connect 607 0 577 0;
#X connect 608 0 607 0;
#X connect 609 0 608 0;
#X connect 610 0 580 0;
#X connect 611 0 610 0;
#X connect 612 0 611 0;
#X connect 613 0 581 0;
#X connect 614 0 613 0;
#X connect 615 0 614 0;
#X connect 616 0 582 0;
#X connect 617 0 616 0;
#X connect 618 0 617 0;
#X connect 619 0 583 0;
#X connect 620 0 619 0;
#X connect 621 0 620 0;
#X connect 622 0 584 0;
#X connect 623 0 622 0;
#X connect 624 0 623 0;
#X connect 626 1 445 0;
#X connect 627 0 446 0;
#X connect 628 0 536 0;
#X connect 628 1 537 0;
#X connect 629 0 498 0;
#X connect 629 1 499 0;
