#N canvas 392 30 1434 972 12;
#X floatatom 1022 303 15 0 0 0 - - - 0;
#X floatatom 884 302 15 0 0 0 - - - 0;
#X text 1077 273 start sample;
#X text 937 274 end sample;
#X obj 1096 886 *~;
#X obj 1175 763 vline~;
#X floatatom 1264 761 15 0 0 0 - - - 0;
#X floatatom 1295 711 15 0 0 0 - - - 0;
#X obj 1253 691 line;
#X text 1094 671 read from sample \$1 to sample \$2 in \$3 msec;
#X obj 1378 52 bng 25 250 50 0 empty empty Play 17 7 0 10 #fcfcfc #000000
#000000;
#X obj 1272 51 bng 25 250 50 0 empty empty Play_Reverse 17 7 0 10 #fcfcfc
#000000 #000000;
#X obj 884 271 * 44100;
#X obj 1022 272 * 44100;
#X obj 975 594 pack \$1 \$2 \$3 \$4;
#X msg 1175 614 \$2 \, \$3 \$4;
#X msg 1253 654 \$2 \, \$3 \$4 1;
#X msg 975 614 \$3 \, \$2 \$4;
#X obj 1272 18 inlet;
#X obj 1378 17 inlet;
#X obj 1095 928 outlet~;
#X obj 875 19 inlet;
#X obj 1041 156 * 1000;
#X floatatom 1041 179 15 0 0 0 - - - 0;
#X msg 999 159 0;
#X floatatom 1178 235 5 0 0 0 - - - 0;
#X obj 1178 278 *;
#X floatatom 1178 303 15 0 0 0 - - - 0;
#X text 995 183 reset;
#X text 1206 280 play in time msec;
#X obj 977 19 inlet;
#X obj 1041 19 inlet;
#X obj 1178 20 inlet;
#X obj 1174 813 tabread~ q;
#X floatatom 884 239 5 0 0 0 - - - 0;
#X floatatom 1022 238 5 0 0 0 - - - 0;
#X floatatom 1041 129 5 0 0 0 - - - 0;
#X obj 1159 198 bng 15 250 50 0 empty empty empty 17 7 0 10 #fcfcfc
#000000 #000000;
#X floatatom 1026 370 13 0 0 0 - - - 0;
#X text 1086 346 end2;
#X floatatom 868 371 21 0 0 0 - - - 0;
#X text 918 346 delay time;
#X msg 1118 345 0;
#X floatatom 17 652 13 0 0 0 - - - 0;
#X floatatom 431 639 13 0 0 0 - - - 0;
#X text 18 576 tail ramp start;
#X text 428 582 tail ramp end2;
#X obj 1175 594 pack \$1 \$2 \$3 \$4 \$5 \$6 \$7 \$8;
#X floatatom 133 807 15 0 0 0 - - - 0;
#X floatatom 182 759 15 0 0 0 - - - 0;
#X obj 89 739 line;
#X msg 89 716 \$2 \, \$6 \$5 1;
#X obj 300 776 line;
#X floatatom 300 801 11 0 0 0 - - - 0;
#X obj 332 615 delay;
#X msg 332 589 \$5;
#X obj 300 731 pack \$1 \$2;
#X obj 1026 345 - 17640;
#X obj 868 346 - 400;
#X msg 300 754 \$1 \, \$2 405 0.1;
#X floatatom 865 840 15 0 0 0 - - - 0;
#X floatatom 865 709 15 0 0 0 - - - 0;
#X obj 865 673 line;
#X msg 865 638 \$3 \, \$2 \$4 0.1;
#X floatatom 134 129 5 0 0 0 - - - 0;
#X obj 134 153 select 0 1 2 3 4 5 6 7, f 101;
#X obj 222 131 hradio 15 1 0 8 empty empty empty 0 -8 0 10 #fcfcfc
#000000 #000000 0;
#X obj 134 12 inlet;
#X msg 134 228 set Env_q;
#X msg 222 229 set Env_a;
#X msg 310 229 set Env_w;
#X msg 486 229 set Env_e;
#X msg 574 230 set Env_d;
#X msg 662 230 set Env_r;
#X msg 750 230 set Env_f;
#X msg 398 229 set Env_s;
#X obj 865 792 tabread Env_q;
#X msg 881 742 set q;
#X msg 882 769 set a;
#X msg 931 745 set w;
#X msg 931 768 set s;
#X msg 978 745 set e;
#X msg 978 769 set d;
#X msg 1024 745 set r;
#X msg 1024 768 set f;
#X obj 1253 733 tabread Env_q;
#X obj 17 627 tabread Env_q;
#X obj 431 614 tabread Env_q;
#X obj 133 781 tabread Env_q;
#X obj 1087 764 vline~;
#X obj 1096 815 tabread~ q;
#X connect 0 0 14 1;
#X connect 0 0 47 1;
#X connect 0 0 86 0;
#X connect 1 0 14 2;
#X connect 1 0 47 2;
#X connect 1 0 57 0;
#X connect 4 0 20 0;
#X connect 5 0 33 0;
#X connect 8 0 7 0;
#X connect 8 0 85 0;
#X connect 10 0 47 0;
#X connect 11 0 14 0;
#X connect 12 0 1 0;
#X connect 13 0 0 0;
#X connect 14 0 17 0;
#X connect 14 0 16 0;
#X connect 14 0 63 0;
#X connect 15 0 5 0;
#X connect 16 0 8 0;
#X connect 17 0 89 0;
#X connect 18 0 11 0;
#X connect 19 0 10 0;
#X connect 21 0 35 0;
#X connect 22 0 23 0;
#X connect 23 0 26 1;
#X connect 23 0 37 0;
#X connect 24 0 23 0;
#X connect 25 0 26 0;
#X connect 26 0 27 0;
#X connect 27 0 14 3;
#X connect 27 0 47 3;
#X connect 27 0 58 0;
#X connect 30 0 34 0;
#X connect 31 0 36 0;
#X connect 32 0 25 0;
#X connect 33 0 4 0;
#X connect 34 0 12 0;
#X connect 35 0 13 0;
#X connect 36 0 22 0;
#X connect 37 0 25 0;
#X connect 38 0 47 5;
#X connect 38 0 87 0;
#X connect 40 0 47 4;
#X connect 42 0 38 0;
#X connect 43 0 56 1;
#X connect 44 0 56 0;
#X connect 47 0 15 0;
#X connect 47 0 16 0;
#X connect 47 0 51 0;
#X connect 47 0 55 0;
#X connect 48 0 4 1;
#X connect 50 0 49 0;
#X connect 50 0 88 0;
#X connect 51 0 50 0;
#X connect 52 0 53 0;
#X connect 53 0 4 1;
#X connect 54 0 43 0;
#X connect 54 0 44 0;
#X connect 55 0 54 0;
#X connect 56 0 59 0;
#X connect 57 0 38 0;
#X connect 58 0 40 0;
#X connect 59 0 52 0;
#X connect 60 0 4 1;
#X connect 62 0 61 0;
#X connect 62 0 76 0;
#X connect 63 0 62 0;
#X connect 64 0 65 0;
#X connect 65 0 68 0;
#X connect 65 0 77 0;
#X connect 65 1 69 0;
#X connect 65 1 78 0;
#X connect 65 2 70 0;
#X connect 65 2 79 0;
#X connect 65 3 75 0;
#X connect 65 3 80 0;
#X connect 65 4 71 0;
#X connect 65 4 81 0;
#X connect 65 5 72 0;
#X connect 65 5 82 0;
#X connect 65 6 73 0;
#X connect 65 6 83 0;
#X connect 65 7 74 0;
#X connect 65 7 84 0;
#X connect 66 0 65 0;
#X connect 67 0 64 0;
#X connect 68 0 76 0;
#X connect 68 0 86 0;
#X connect 68 0 87 0;
#X connect 68 0 88 0;
#X connect 69 0 76 0;
#X connect 69 0 86 0;
#X connect 69 0 87 0;
#X connect 69 0 88 0;
#X connect 70 0 76 0;
#X connect 70 0 86 0;
#X connect 70 0 87 0;
#X connect 70 0 88 0;
#X connect 71 0 76 0;
#X connect 71 0 86 0;
#X connect 71 0 87 0;
#X connect 71 0 88 0;
#X connect 72 0 76 0;
#X connect 72 0 86 0;
#X connect 72 0 87 0;
#X connect 72 0 88 0;
#X connect 73 0 76 0;
#X connect 73 0 86 0;
#X connect 73 0 87 0;
#X connect 73 0 88 0;
#X connect 74 0 76 0;
#X connect 74 0 86 0;
#X connect 74 0 87 0;
#X connect 74 0 88 0;
#X connect 75 0 76 0;
#X connect 75 0 86 0;
#X connect 75 0 87 0;
#X connect 75 0 88 0;
#X connect 76 0 60 0;
#X connect 77 0 33 0;
#X connect 77 0 90 0;
#X connect 78 0 33 0;
#X connect 78 0 90 0;
#X connect 79 0 33 0;
#X connect 79 0 90 0;
#X connect 80 0 33 0;
#X connect 80 0 90 0;
#X connect 81 0 33 0;
#X connect 81 0 90 0;
#X connect 82 0 33 0;
#X connect 82 0 90 0;
#X connect 83 0 33 0;
#X connect 83 0 90 0;
#X connect 84 0 33 0;
#X connect 84 0 90 0;
#X connect 85 0 6 0;
#X connect 86 0 43 0;
#X connect 87 0 44 0;
#X connect 88 0 48 0;
#X connect 89 0 90 0;
#X connect 90 0 4 0;
