#N canvas 10 30 753 424 12;
#X text 23 19 RECORDING SECTION;
#X obj 102 74 adc~;
#X obj 103 133 *~;
#X floatatom 207 70 5 0 3 0 - - - 0;
#X obj 48 225 env~;
#X obj 48 250 - 90;
#X obj 50 50 vu 15 120 empty empty -1 -8 0 10 #404040 #000000 1 0;
#X obj 559 271 bng 25 250 50 0 empty empty Rec -1 -10 0 15 #fcfcfc
#000000 #000000;
#X obj 559 301 t b b;
#X msg 608 356 stop;
#X msg 559 356 start;
#X obj 559 326 delay 5000;
#X obj 102 376 tabwrite~ q;
#X floatatom 267 69 5 0 0 0 - - - 0;
#X obj 267 93 select 0 1 2 3 4 5 6 7, f 66;
#X obj 207 8 inlet;
#X msg 146 212 0;
#X obj 360 68 hradio 15 1 0 8 empty empty empty 0 -8 0 10 #fcfcfc #000000
#000000 0;
#X obj 267 7 inlet;
#X msg 324 127 set a;
#X msg 267 127 set q;
#X msg 381 127 set w;
#X msg 439 128 set s;
#X msg 496 127 set e;
#X msg 553 127 set d;
#X msg 611 127 set r;
#X msg 668 127 set f;
#X obj 192 197 bng 15 250 50 0 empty empty empty 17 7 0 10 #fcfcfc
#000000 #000000;
#X connect 1 0 2 0;
#X connect 2 0 4 0;
#X connect 2 0 12 0;
#X connect 3 0 2 1;
#X connect 4 0 5 0;
#X connect 5 0 6 0;
#X connect 7 0 8 0;
#X connect 8 0 11 0;
#X connect 8 1 10 0;
#X connect 9 0 12 0;
#X connect 9 0 27 0;
#X connect 10 0 12 0;
#X connect 11 0 9 0;
#X connect 13 0 14 0;
#X connect 14 0 20 0;
#X connect 14 1 19 0;
#X connect 14 2 21 0;
#X connect 14 3 22 0;
#X connect 14 4 23 0;
#X connect 14 5 24 0;
#X connect 14 6 25 0;
#X connect 14 7 26 0;
#X connect 15 0 3 0;
#X connect 16 0 3 0;
#X connect 17 0 14 0;
#X connect 18 0 13 0;
#X connect 19 0 12 0;
#X connect 19 0 7 0;
#X connect 20 0 12 0;
#X connect 20 0 7 0;
#X connect 21 0 12 0;
#X connect 21 0 7 0;
#X connect 22 0 12 0;
#X connect 22 0 7 0;
#X connect 23 0 12 0;
#X connect 23 0 7 0;
#X connect 24 0 12 0;
#X connect 24 0 7 0;
#X connect 25 0 12 0;
#X connect 25 0 7 0;
#X connect 26 0 12 0;
#X connect 26 0 7 0;
#X connect 27 0 16 0;
